STARTFONT 2.3
FONT -FontForge-Henny Penny-Book-R-Normal--36-360-72-72-P-206-ISO10646-1
SIZE 36 72 72  2
FONTBOUNDINGBOX 50 64 -5 -23
COMMENT "Generated by fontforge, http://fontforge.sourceforge.net"
COMMENT "Copyright (c) 2012, Brownfox (gayaneh.b@gmail.com), with Reserved Font Name "Henny Penny""
STARTPROPERTIES 40
FOUNDRY "FontForge"
FAMILY_NAME "Henny Penny"
WEIGHT_NAME "Book"
SLANT "R"
SETWIDTH_NAME "Normal"
ADD_STYLE_NAME ""
PIXEL_SIZE 36
POINT_SIZE 360
RESOLUTION_X 72
RESOLUTION_Y 72
SPACING "P"
AVERAGE_WIDTH 206
CHARSET_REGISTRY "ISO10646"
CHARSET_ENCODING "1"
FONTNAME_REGISTRY ""
CHARSET_COLLECTIONS "ISO10646-1"
BITS_PER_PIXEL 2
FONT_NAME "HennyPenny-Regular"
FACE_NAME "Henny Penny"
COPYRIGHT "Copyright (c) 2012, Brownfox (gayaneh.b@gmail.com), with Reserved Font Name "Henny Penny""
FONT_VERSION "1.001"
FONT_ASCENT 29
FONT_DESCENT 7
UNDERLINE_POSITION -4
UNDERLINE_THICKNESS 2
X_HEIGHT 21
CAP_HEIGHT 27
RAW_ASCENT 799
RAW_DESCENT 200
NORM_SPACE 10
RELATIVE_WEIGHT 40
RELATIVE_SETWIDTH 50
SUPERSCRIPT_X 0
SUPERSCRIPT_Y 12
SUPERSCRIPT_SIZE 21
SUBSCRIPT_X 0
SUBSCRIPT_Y 2
SUBSCRIPT_SIZE 21
AVG_LOWERCASE_WIDTH 184
AVG_UPPERCASE_WIDTH 258
ENDPROPERTIES
CHARS 233
STARTCHAR space
ENCODING 32
SWIDTH 270 0
DWIDTH 10 0
BBX 1 1 0 0
BITMAP
00
ENDCHAR
STARTCHAR exclam
ENCODING 33
SWIDTH 249 0
DWIDTH 9 0
BBX 5 35 2 -1
BITMAP
7E00
FF80
FFC0
FFC0
FFC0
FFC0
BFC0
BFC0
7FC0
7FC0
3F80
3F80
3F80
2F80
2F40
1F40
1F40
1F00
1F00
1F00
0E00
0E00
0D00
0D00
0C00
0C00
0800
0000
0000
0000
7E00
BF40
FF40
BF40
6E00
ENDCHAR
STARTCHAR quotedbl
ENCODING 34
SWIDTH 292 0
DWIDTH 11 0
BBX 8 14 1 17
BITMAP
001D
2C2E
7D3E
7D3E
3D2E
3D2E
3D2D
2D2D
2D2D
1D2D
1C1C
0C1C
0C18
0408
ENDCHAR
STARTCHAR numbersign
ENCODING 35
SWIDTH 1030 0
DWIDTH 37 0
BBX 33 40 2 -11
BITMAP
000000000800000000
000000001C00000000
000000002400000000
000000003000000000
000000006006000000
00000000D009000000
00000001C01C000000
000000028028000000
000000030034000000
0000000A00A0000000
5550001D01D0000000
AAABFFFF9BD0000000
000001FD5FEAAAFA80
000000B00F00000540
000000D01D00000000
000001C02C00000000
000002803400000000
00000740B000000000
00000B00D000000000
00001E02C016BE0000
00002D5BEBE9500000
055AFFFF9000000000
BFFFF91E0000000000
5501F01D0000000000
0002E0380000000000
0003C0740000000000
000B80B00000000000
000F41E00000000000
001E02C00000000000
003D03800000000000
007C0B400000000000
00B40F000000000000
00F01D000000000000
00902C000000000000
000078000000000000
0000B4000000000000
0000E0000000000000
0001D0000000000000
0002C0000000000000
000340000000000000
ENDCHAR
STARTCHAR dollar
ENCODING 36
SWIDTH 799 0
DWIDTH 29 0
BBX 22 40 3 -8
BITMAP
000000020000
000000060000
0000000A0060
0000000900D0
00001BFE9BC0
0000BE0EFF80
0003F81C7F40
000BF4181F00
000FF0240F00
001FF4240E00
001FF8300A00
001FFC300900
000FFE600400
000BFFE00000
0007FFD00000
0002FFF40000
0000BFFD0000
00003FFF0000
00001FFF8000
000007FFE000
000003FFF400
0000077FF800
0140062FFD00
0240090BFE00
02400D03FE00
03400C02FF00
03401801FF00
07801800FF00
0B802400FE00
0FC03000FD00
1FE03001FC00
2EF46002F400
707D9007E000
800BD06F4000
0001FFE40000
000180000000
000240000000
000340000000
000300000000
000100000000
ENDCHAR
STARTCHAR percent
ENCODING 37
SWIDTH 789 0
DWIDTH 28 0
BBX 28 33 0 0
BITMAP
002BF800000180
01F82F40000340
03E00BC0000A00
07D007E0001D00
0BD003F0007800
0FD003F000E000
0FD002F002C000
0FE002F0074000
0BE003F01E0000
07F003E03C0000
03F807C0B40000
00FD1F41E00000
001BE407800000
0000000F000000
0000002D000000
00000078000000
000000E0000000
000002C0000000
00000B401BF900
00001E00BD0BD0
00003802F402F0
0000B007E001F8
0001D00BD000FC
0007800FC000FD
000E000FC000FD
002C000FC000FD
0074000FC000FD
00E0000FD001FC
0280000BD002F8
0B400003F003E0
1D000001F91B80
280000002BF900
60000000000000
ENDCHAR
STARTCHAR ampersand
ENCODING 38
SWIDTH 773 0
DWIDTH 28 0
BBX 26 35 1 -4
BITMAP
0001BF90000000
000B41F4000000
002D0078000000
0078007C000000
00B4007C000000
00F400B8000000
00F001F8000000
00F403F0000000
00F40BD0000000
00F82F80000000
00FCBF00000000
00BEFD00000000
007FF400001800
007FD000007C00
00BF800002FC00
02FFC0001FFC00
07FFD001FFFC00
0FFFF07E41FC00
2FF7F40000B800
3FD2FC0000B800
7FD0FE0000B400
BFC0BF4000B000
BFC03FD000E000
BF801FF001D000
BFC00BF802C000
BFC002FE034000
7FD000FF8A0000
3FE0007FFC0010
1FF4002FFC0020
07FD000BFF4090
01FF906EFFFBC0
001BFF90BFFF40
000000002FFF00
0000000007FD00
0000000000B400
ENDCHAR
STARTCHAR quotesingle
ENCODING 39
SWIDTH 174 0
DWIDTH 6 0
BBX 3 11 2 17
BITMAP
B0
F4
F4
F4
F4
B4
B4
74
34
30
10
ENDCHAR
STARTCHAR parenleft
ENCODING 40
SWIDTH 431 0
DWIDTH 16 0
BBX 16 51 0 -15
BITMAP
00008000
00028000
00070000
000E0000
002C0000
00780000
00B40000
01F00000
02E00000
03D00000
07D00000
0BC00000
0FC00000
1F800000
2F800000
2F800000
3F400000
3F400000
7F400000
7F400000
7F400000
BF400000
BF400000
BF400000
BF400000
BF400000
7F400000
7F800000
7F800000
3FC00000
3FD00000
2FD00000
1FE00000
0FF00000
0BF40000
07F80000
03FC0000
01FD0000
00FF0000
007F4000
003F8000
001FD000
000BF000
0003F400
0001FC00
00007E00
00002F40
00000BD0
000002F0
0000007C
00000009
ENDCHAR
STARTCHAR parenright
ENCODING 41
SWIDTH 443 0
DWIDTH 16 0
BBX 16 35 0 -8
BITMAP
0A800000
02F80000
007F4000
001FE000
0007F800
0001FE00
0000BF40
00003FC0
00002FE0
00000FF0
00000BF4
000007FC
000003FC
000003FD
000002FD
000002FE
000001FE
000001FE
000001FE
000002FD
000002FD
000002FC
000003F8
000007F4
00000BF0
00000FE0
00001FC0
00003F40
0000BE00
0002F800
000BE000
002F8000
01FD0000
1BE00000
7E000000
ENDCHAR
STARTCHAR asterisk
ENCODING 42
SWIDTH 490 0
DWIDTH 18 0
BBX 15 15 1 18
BITMAP
00074000
000BC000
000BC000
0007D074
0003D1F8
0002D3F0
2A41DBC0
7FF4EE00
2FFFF400
0001F400
001B6E00
007E0FD0
01F80BF0
01E003F4
000001F4
ENDCHAR
STARTCHAR plus
ENCODING 43
SWIDTH 440 0
DWIDTH 16 0
BBX 12 19 2 2
BITMAP
000900
000900
000900
000900
000900
000900
000900
000D00
001D5A
FFFF94
000E00
000A00
000A00
000600
000700
000700
000300
000340
000100
ENDCHAR
STARTCHAR comma
ENCODING 44
SWIDTH 251 0
DWIDTH 9 0
BBX 6 12 2 -6
BITMAP
6E00
FF80
FFC0
FFD0
7FD0
2FC0
0B80
0B40
0A00
1D00
2400
6000
ENDCHAR
STARTCHAR hyphen
ENCODING 45
SWIDTH 436 0
DWIDTH 16 0
BBX 12 2 2 7
BITMAP
540015
AFFFFA
ENDCHAR
STARTCHAR period
ENCODING 46
SWIDTH 238 0
DWIDTH 9 0
BBX 5 6 2 -1
BITMAP
6E00
FF80
FF80
FF80
FF40
6E00
ENDCHAR
STARTCHAR slash
ENCODING 47
SWIDTH 690 0
DWIDTH 25 0
BBX 25 34 0 0
BITMAP
00000000000040
00000000000240
00000000000A00
00000000001D00
00000000003800
0000000000B000
0000000001D000
00000000078000
000000000F0000
000000002D0000
00000000740000
00000001E00000
00000002C00000
0000000B400000
0000001E000000
00000038000000
000000B4000000
000002D0000000
00000780000000
00000F00000000
00002D00000000
00007400000000
0000E000000000
0002C000000000
00074000000000
001E0000000000
00380000000000
00B00000000000
01D00000000000
03800000000000
0B000000000000
1D000000000000
38000000000000
60000000000000
ENDCHAR
STARTCHAR zero
ENCODING 48
SWIDTH 723 0
DWIDTH 26 0
BBX 26 26 0 2
BITMAP
00006BFE900000
0007E406F90000
002F40002F8000
00FC00000BE000
02F4000002F800
0BE0000001FD00
0FD0000000FF00
2FC0000000BF40
3F800000007FC0
7F800000003FD0
7F800000003FD0
BF400000002FE0
BF400000002FE0
BF800000002FE0
7F800000002FE0
7F800000002FD0
3FC00000002FD0
2FD00000003FC0
1FE00000003F80
0FF00000007F40
07F8000000BE00
02FD000000FC00
00BF000002F400
002FD0000BD000
0006F9407D0000
00001BFE900000
ENDCHAR
STARTCHAR one
ENCODING 49
SWIDTH 505 0
DWIDTH 18 0
BBX 18 33 0 -3
BITMAP
0000500000
0000D00000
0001E00000
0002E00000
0007F00000
000FF00000
002FF40000
00BFF40000
079BF80000
1903F80000
9002FC0000
0001FC0000
0001FD0000
0000FD0000
0000FE0000
0000FE0000
0000BF0000
0000BF0000
0000BF4000
00007F4000
00007F8000
00007FC000
00007FC000
00003FD000
00003FE000
00003FF000
00003FF400
00007FFD00
0000BFFFD0
0006F94000
002E400000
01E4000000
0140000000
ENDCHAR
STARTCHAR two
ENCODING 50
SWIDTH 534 0
DWIDTH 19 0
BBX 19 32 0 -3
BITMAP
001BFE4000
00BFFFE000
07FFFFFC00
0F906FFE00
2D000BFF00
380003FF40
700001FF40
600001FF40
900001FF40
900001FF00
800001FE00
800002FD00
000003F800
000007F000
00000BD000
00001F8000
00003E0000
0000B80000
0002E00000
000B800000
002D000000
00A0000000
0780000000
2FD0000004
1FF9000008
02FFD00024
002FFE50A0
0002FFFFD0
00007FFF80
00000BFF00
000001FE00
0000002800
ENDCHAR
STARTCHAR three
ENCODING 51
SWIDTH 511 0
DWIDTH 18 0
BBX 19 30 0 -2
BITMAP
1E94000000
1FFFFAA800
1FFFFFFC00
1FFFFFF400
1F9001E000
1E0001C000
1C00024000
1800090000
1400180000
0000200000
0000800000
0002E40000
0002FF8000
00007FF400
00000BFD00
000001FF40
000000BFD0
4000003FE0
8000001FF0
C000000FF4
D000000FF4
A000000FF4
7000000FF4
3800001FF0
2D00002FE0
1F40007FD0
0BE406FF80
02FFFFFF00
00BFFFF800
0006FF9000
ENDCHAR
STARTCHAR four
ENCODING 52
SWIDTH 712 0
DWIDTH 26 0
BBX 25 35 0 -4
BITMAP
00000002000000
0000000A000000
0000001D000000
0000003C000000
000000FC000000
000002FC000000
00000BFC000000
00001AFC000000
000061FD000000
000180FD000000
000600BE000000
001C00BE000000
0074007F000000
01D0007F400000
0780003F400000
1F00003F800000
7F40002FC00000
BFE0002FD00000
1BFE402FD00000
006FF41FE00000
0002FFAFF00100
00001FFFF40600
000001BFFFFD00
0000001BFFF800
00000007FFF400
00000007F9A000
00000003FC0000
00000003FD0000
00000002FD0000
00000002FE0000
00000002FF0000
00000003FF8000
0000006AFFD000
0000000001B400
00000000000640
ENDCHAR
STARTCHAR five
ENCODING 53
SWIDTH 757 0
DWIDTH 27 0
BBX 27 34 0 -4
BITMAP
00000000000004
0000000B40000C
0000001FF4002C
0000002FFE4078
0000007BFFEAF0
00000091BFFFE0
000001802FFFD0
0000034007FF80
0000060000BF40
00000C00001E00
00001400000000
00003000000000
00007EA4000000
0000FFFF900000
00001BFFF80000
0000006FFE0000
00000007FF8000
08000001FFC000
24000000BFE000
300000003FF000
600000002FF000
A00000002FF000
900000002FF000
900000002FF000
900000002FE000
A00000003FD000
A00000007FC000
70000000BF8000
38000001FF0000
1D000002FD0000
0B80000BF80000
02F501BFD00000
007FFFFE400000
0006FFA4000000
ENDCHAR
STARTCHAR six
ENCODING 54
SWIDTH 598 0
DWIDTH 22 0
BBX 21 28 0 0
BITMAP
00006FF90000
0007FFFFE000
002FE405F800
00BF80002E00
02FE00000740
07FC00000280
0BF400000080
1FF000000000
2FE06FF90000
3FE2901BD000
3FEE0002F400
7FF80000BD00
7FF400007F00
7FF000003F40
7FE000002F80
7FD000001FC0
7FD000001FC0
7FD000001FC0
3FD000000FC0
2FD000001FC0
1FE000001F80
0FE000001F80
0BF000002F00
03F800003E00
00FD0000BC00
002F4001F000
000BE41B8000
00006FF90000
ENDCHAR
STARTCHAR seven
ENCODING 55
SWIDTH 507 0
DWIDTH 18 0
BBX 18 30 0 -2
BITMAP
0000000010
9500005AF0
FFFFFFFFD0
BFFFFFFF80
BFFFFFFF00
7D01AFFE00
780001BC00
7400002800
3000003000
300000A000
200000C000
1000028000
0000074000
00000B0000
00001D0000
00002C0000
0000780000
0000B80000
0001F40000
0002F00000
0007E00000
000BE00000
000FD00000
001FD00000
003FD00000
007FC00000
00BFC00000
00FFC00000
01FE800000
0190000000
ENDCHAR
STARTCHAR eight
ENCODING 56
SWIDTH 476 0
DWIDTH 17 0
BBX 17 30 0 -1
BITMAP
001BF90000
00BF41D000
03FC007000
0BF8002400
0FF4002800
1FF4001800
1FF8002800
1FFC003400
1FFD006000
0FFF40D000
0BFFE74000
03FFFD0000
01FFFE4000
007FFFD000
007FFFF400
01FABFFC00
07D01BFE00
1F0002FF00
3D0000BF40
7C00003F80
B800002FC0
B800001FC0
B400000FC0
B800000F80
B800000F40
7C00001F00
2E00002D00
0F40007800
02E406D000
006BF90000
ENDCHAR
STARTCHAR nine
ENCODING 57
SWIDTH 601 0
DWIDTH 22 0
BBX 22 27 0 -1
BITMAP
000AFF900000
00BD01FE0000
07F0002FD000
0FD0000FF400
2F800007FC00
3F400003FE00
7F400002FF00
BF400001FF80
BF400000FF80
BF400000FFC0
BF400000FFC0
7F800000FFD0
3F800000FFD0
2FD00001FFD0
0FF00002FFC0
07F80007FFC0
00BF902FFF80
001AFF91FF80
00000002FF40
00000002FE00
00000003FD00
0000000BF800
0000001FF000
1900007FD000
0F9006FF4000
02FFFFF80000
006BFE400000
ENDCHAR
STARTCHAR colon
ENCODING 58
SWIDTH 246 0
DWIDTH 9 0
BBX 5 18 2 -1
BITMAP
6E00
FF80
FF80
FF80
7E00
0000
0000
0000
0000
0000
0000
0000
0000
2F40
BFC0
BFC0
BF80
2E40
ENDCHAR
STARTCHAR semicolon
ENCODING 59
SWIDTH 266 0
DWIDTH 10 0
BBX 6 23 2 -7
BITMAP
1F80
7FD0
BFE0
7FE0
7FD0
1F80
0000
0000
0000
0000
0000
0000
0000
2E40
BFC0
FFD0
BFD0
2FC0
0F80
0F00
1D00
7400
9000
ENDCHAR
STARTCHAR less
ENCODING 60
SWIDTH 522 0
DWIDTH 19 0
BBX 15 17 2 3
BITMAP
00000010
000000B0
000007C0
00002E00
0001F400
000B8000
007D0000
06E00000
2E400000
FD000000
6F400000
07F40000
007F4000
0007E400
0000BE40
00000BE0
000000B8
ENDCHAR
STARTCHAR equal
ENCODING 61
SWIDTH 655 0
DWIDTH 24 0
BBX 20 7 2 7
BITMAP
00156AAFFE
AFFFA95500
5540000000
0000000000
0000000000
BFFFAAA940
FFFFFFFFD0
ENDCHAR
STARTCHAR greater
ENCODING 62
SWIDTH 533 0
DWIDTH 19 0
BBX 15 18 2 2
BITMAP
90000000
79000000
0B800000
01F40000
002E4000
0006E000
00007D00
00000B90
000001F4
000000B8
000002E0
00000B80
00007D00
0002E000
000B4000
00780000
02D00000
0A000000
ENDCHAR
STARTCHAR question
ENCODING 63
SWIDTH 564 0
DWIDTH 20 0
BBX 20 33 0 -4
BITMAP
0006FFA400
007901FE40
01E0003FD0
07C0001FF0
0B80000BF8
1F80000BFC
2FC00007FC
3FD00007FD
7FF0000BFD
7FF8000BFC
7FFD000FF8
3FFE002FF4
2FFE007FF0
1FFD00FFD0
06F402FF40
00000BF800
00003FD000
0001FE0000
0007E40000
001F400000
003D000000
0074000000
00E0000000
00D0000000
00D0400000
00A1800000
002E000000
0000000000
0000000000
001F400000
003FC00000
002FC00000
000B800000
ENDCHAR
STARTCHAR at
ENCODING 64
SWIDTH 898 0
DWIDTH 32 0
BBX 30 36 1 -11
BITMAP
0000006BFE900000
00000B94016E0000
000078000006D000
0002800000007400
000A000000001D00
0028000000000A00
00A0000000000340
01C0000000000280
0280000007F400C0
070002BE47F400D0
0A002F41BBF400A0
0C00BC003FF400A0
1C01F4001FF40060
2803F0000FF00070
2407E0000BF00070
340BE0000BF00060
300FE00007F00060
300FE0000BF000A0
701FE0000BF00090
301FF0000BF000D0
300FF4000FF001C0
300FF8001BF00280
340BFD003AF40740
2403FF41F1FD1E00
2801FFFFE07FF800
1C007FFF801BE000
0D000BF900000000
0A000001B8000000
07000003FE000000
02800003FF000000
01D00002FF400000
00B00000BF000000
002C00002E000000
000B40003C000000
0001E401F4000000
00001BFE40000000
ENDCHAR
STARTCHAR A
ENCODING 65
SWIDTH 784 0
DWIDTH 28 0
BBX 29 32 0 -3
BITMAP
0000001900000000
000000BE00000000
00005BFF00000000
000BEBFF40000000
000003FF80000000
000003BFC0000000
0000076FD0000000
0000071FE0000000
00000A0FF0000000
00000D0BF4000000
00001C07F8000000
00002803FC000000
00003402FE000000
00007001FF000000
0000A001FF400000
0000EE50FF800000
0001C1BEFFC00000
00028006FFD00000
000340007FE00000
000B00002FF00000
000E00001FF40000
001D00000FF80000
002C00000BFC0000
0078000007FD0000
01F8000003FE0000
FFF8000002FF0000
05BE400002FF4000
0006C00001FFC000
0000000000FFE000
0000000000FFF900
0000000007FFFF80
00000000BA500000
ENDCHAR
STARTCHAR B
ENCODING 66
SWIDTH 685 0
DWIDTH 25 0
BBX 24 36 0 -5
BITMAP
000006BFA000
695AFFFFFD00
07FF901BFF40
00BF8002FF80
003F8000BFC0
002FC0007FC0
001FC0007FC0
001FC0007FC0
001FC0007F80
000FC0007F00
000FD000FD00
000FD002F400
000FD00B8000
000FD1B90000
000FFA6BE400
000FE000BE40
000FE0002FD0
000FE0000BF4
000FE00007FC
000FE00002FD
000FF00002FE
000FF00001FF
000FF00001FF
000FF00001FF
000FF40001FF
000FF40001FF
000FF40002FE
000FF40002FD
000FF80003FC
001FF8000BF4
002FFD001FD0
003FFF41BE00
01FFFFFFA000
07E400000000
2D0000000000
E00000000000
ENDCHAR
STARTCHAR C
ENCODING 67
SWIDTH 742 0
DWIDTH 27 0
BBX 27 34 0 -4
BITMAP
00000000000200
00000000000600
00000000000600
00000000000A00
00000000000E00
00001AFFE9BE00
0002FE405BFE00
001FE00001FF00
00BF4000002F00
02FE0000000F40
07FC0000000780
0FF800000001C0
1FF40000000090
2FF00000000000
3FE00000000000
7FE00000000000
BFE00000000000
BFE00000000000
BFE00000000000
BFE00000000000
BFE00000000014
BFF00000000024
BFF00000000024
7FF40000000024
7FF80000000030
3FFC0000000060
1FFD00000000A0
0FFF00000001C0
07FF8000000280
01FFE000000B00
007FFD00002D00
001FFF9006F400
0001FFFFFF8000
00001AFFE40000
ENDCHAR
STARTCHAR D
ENCODING 68
SWIDTH 726 0
DWIDTH 26 0
BBX 26 30 0 -6
BITMAP
140056BFF90000
1BFFE406FFD000
01FF80002FF800
00BF80000BFD00
007F400003FF00
003F400001FF80
003F400000FFC0
003F400000BFD0
002F800000BFD0
002F8000007FD0
002F8000007FE0
002F8000007FE0
002F8000007FD0
002F800000BFD0
002FC00000BFC0
002FC00000FF80
002FC00001FF40
002FD00002FE00
002FD00003FC00
002FE0000BF000
002FF4002F8000
003FFD01B80000
003FFFF9000000
007FF900000000
00BF8000000000
01F80000000000
03900000000000
0E000000000000
74000000000000
90000000000000
ENDCHAR
STARTCHAR E
ENCODING 69
SWIDTH 557 0
DWIDTH 20 0
BBX 20 33 0 -4
BITMAP
00000016B0
7A96AFFFF0
1FFF9500B0
07FF000070
03FF000030
02FF000020
01FF400000
01FF400000
00FF400000
00FF400000
00FF400000
00BF401000
00BF402000
007F80A000
007FFFD000
007FFFD000
007F86D000
003F809000
003F809000
003F809000
002FC04000
002FC00000
002FC00000
002FC00000
001FC00000
001FD00000
001FD00002
001FD00003
001FD00007
000FE0000F
002FE0007E
3FFFFEAFFD
000055ABF8
ENDCHAR
STARTCHAR F
ENCODING 70
SWIDTH 533 0
DWIDTH 19 0
BBX 20 32 0 -1
BITMAP
000000006E
0000005BFF
000065007E
6AAFE0002E
17FFD0002D
00FFD0002C
00BFD00028
007FD00028
007FD00024
003FE00020
003FE01000
002FE02000
002FE03000
002FE06000
001FE1E000
001FFFE000
000FE1E000
000FE06000
000FE02000
000FE03000
000BE02000
000BF00000
000BF00000
000BF00000
0007F00000
0007F00000
0007F00000
0007F00000
0007F00000
000FF40000
016FFC0000
2FFAAF8000
ENDCHAR
STARTCHAR G
ENCODING 71
SWIDTH 750 0
DWIDTH 27 0
BBX 27 27 0 -1
BITMAP
00000000000008
00000000000028
00000000000070
00001AFFA401D0
0002FD406FAF80
001FE00002FF40
00BF400000FE00
02FE0000007D00
0BFC0000007C00
0FF40000007400
2FF00000007000
3FE00000006000
7FE00000000000
BFD00000000000
BFD000000005A0
BFD0000016BF40
BFD0002FAFFE00
BFD0000003FD00
BFE0000002FD00
7FF0000001FE00
3FF0000001FE00
2FF8000001FE00
0FFC000002FF00
07FE000007FF00
01FF80001E0700
002FF901A00000
0001BFF9000000
ENDCHAR
STARTCHAR H
ENCODING 72
SWIDTH 743 0
DWIDTH 27 0
BBX 27 37 0 -5
BITMAP
14000000000000
1B900000000000
01FFFFF8000000
00BFE000000000
007FC0000001A4
007FC00005AF40
003FC007FFFE00
003FC00007FE00
003FC00003FD00
003FC00002FD00
003FC00002FD00
003FC00002FD00
003FC00001FD00
003FC00001FD00
003FC00001FD00
003FC00001FD00
003FC00002FD00
003FC0015BFD00
003FFAFAABFD00
003FE50002FC00
003FC00002FC00
003FC00001FC00
003FC00001FC00
003FC00001FC00
003FC00001FC00
003FC00000FC00
007FC00000FC00
007FC00000FC00
007FC00000FC00
007FC00000FC00
007FC00000FC00
007FC00000FD00
007FC00007FE00
007FD002FFFFE4
01FFD001540050
6FFFF400000000
A5005800000000
ENDCHAR
STARTCHAR I
ENCODING 73
SWIDTH 438 0
DWIDTH 16 0
BBX 20 38 -2 -7
BITMAP
1A55556AFE
05BFFFF900
000FFFD000
0007FF8000
0003FF4000
0003FF0000
0003FF0000
0003FE0000
0003FE0000
0003FD0000
0003FD0000
0003FD0000
0003FC0000
0003FC0000
0003FC0000
0003F80000
0003F80000
0003F80000
0003F80000
0003F40000
0003F40000
0003F40000
0003F40000
0003F40000
0003F00000
0003F00000
0003F00000
0003F00000
0003F00000
0003F00000
0003F00000
0003F00000
0007F00000
000BF90000
002FFFF400
02F9400000
6E40000000
5000000000
ENDCHAR
STARTCHAR J
ENCODING 74
SWIDTH 628 0
DWIDTH 23 0
BBX 25 42 0 -9
BITMAP
00000000001A40
0000000006E400
00000056BF4000
0000BFFFFD0000
000001FFF80000
0000007FF80000
0000002FF40000
0000002FF40000
0000001FF40000
0000001FF40000
0000000FF40000
0000000FF40000
0000000FF40000
0000000BF40000
0000000BF40000
0000000BF40000
0000000BF00000
0000000BF00000
0000000BF00000
0000000BF00000
0000000BF00000
0000000BE00000
0000000BE00000
0000000BE00000
0000000BD00000
0000000FD00000
0000000FD00000
0000000FC00000
0000001F800000
0000001F800000
0000002F400000
0000002F000000
06F8003E000000
2FFE007D000000
7FFF40BC000000
BFFF40F4000000
BFFF02F0000000
BFFE03D0000000
B4140B40000000
34002E00000000
1D01F400000000
06FE4000000000
ENDCHAR
STARTCHAR K
ENCODING 75
SWIDTH 866 0
DWIDTH 31 0
BBX 32 33 0 -3
BITMAP
0000060000000000
0016B80180000000
BFFFD000B9400000
06FF80003FFFE000
01FF80002F900000
00FF80003D000000
00BF8000B4000000
00BF8001D0000000
00BF800780000000
00BF800E00000000
00BF802C00000000
007F80B400000000
007F82F400000000
007F8BFC00000000
007F9FFD00000000
007FF7FE00000000
003FD2FF40000000
003F80FF80000000
003F80BFD00000A0
003F803FF0000038
003F801FF800001D
002F800FFE00000E
002F8007FF40000B
002FC001FFE0000B
002FC0007FF8000E
002FC0001FFF907E
002FC00007FFFFFC
002FC00000BFFFF4
002FD0000006FE80
007FE00000000000
02FFF80000000000
00006F4000000000
0000004000000000
ENDCHAR
STARTCHAR L
ENCODING 76
SWIDTH 660 0
DWIDTH 24 0
BBX 22 26 1 1
BITMAP
FA5000000000
06FFFBFC0000
00BFFE400000
003FFC000000
003FF8000000
002FF8000000
002FF4000000
002FF4000000
002FF4000000
002FF0000000
002FF0000000
002FF0000000
002FF0000000
002FE0000000
002FE0000800
002FE0000900
002FE0000A00
002FD0000700
002FD0000340
002FD0000380
002FD00003C0
002FD00007D0
003FD0000BE0
007FF4006FF0
06FFFFFFFFF0
7EA550000000
ENDCHAR
STARTCHAR M
ENCODING 77
SWIDTH 1089 0
DWIDTH 39 0
BBX 40 28 0 -1
BITMAP
00000000000000000140
000000000000000BFFC0
000000000000001FE500
000000000000002F4000
000400000000003E0000
000BEA90000000BE0000
0000BFF8000000FE0000
00002FFE000001FF0000
00000DFF400003FF0000
00000D7FD00005BF4000
00000A2FF00008BF4000
00000A1FF800147F8000
00000A0BFD00203F8000
00000A03FF00503FC000
00000A02FF80802FD000
00000A00FFE2401FD000
00000A007FFB000FE000
00000A002FFD000FF000
00000A001FFC000BF400
00000D000BF8000BF800
00000D0003F00007FC00
00001C0002D00003FD00
2E00280000800003FE00
BF80340000000003FF40
FFE5F00000000003FFE4
BFFFD0000000000BFFFF
7FFF4000000002FA4000
1BF80000000001400000
ENDCHAR
STARTCHAR N
ENCODING 78
SWIDTH 799 0
DWIDTH 29 0
BBX 29 34 0 -8
BITMAP
0005000000000000
BFFFD00000001680
01FFF4000FFFF900
007FFD00006FC000
003FFF40000F4000
003AFFD0000B4000
0038BFF000070000
00282FFC00070000
00280FFE00070000
002807FF80070000
002802FFE0070000
002800FFF8060000
0028007FFD0A0000
0028001FFF4A0000
0028000BFFEE0000
00280003FFFE0000
00280001FFFE0000
002800007FFE0000
002800002FFE0000
002800000FFE0000
0028000003FE0000
0028000001FE0000
00280000007D0000
00280000002D0000
0028000000090000
0028000000000000
0028000000000000
0028000000000000
003C000000000000
003C000000000000
00BD000000000000
06FF000000000000
7FFFD00000000000
0001BD0000000000
ENDCHAR
STARTCHAR O
ENCODING 79
SWIDTH 747 0
DWIDTH 27 0
BBX 27 27 0 1
BITMAP
00006BFE900000
0007E406FD0000
002F40007FD000
00FC00001FF400
03F4000007FD00
0BF0000002FF40
1FD0000001FFC0
2FD0000000BFD0
3FC00000007FE0
7F800000007FF0
BF800000003FF4
BF800000002FF8
BF800000002FF8
BF800000002FF8
BF800000002FF8
BFC00000002FF8
BFC00000001FF4
7FD00000002FF0
3FE00000002FF0
2FF00000003FD0
1FF40000003FC0
0BF80000007F40
03FD000000FE00
00FF400002F800
002FD0000BE000
0007F9017E4000
00006BFF940000
ENDCHAR
STARTCHAR P
ENCODING 80
SWIDTH 623 0
DWIDTH 22 0
BBX 23 31 0 -5
BITMAP
0000006FE900
00005B41BF80
BFFFFE002FD0
01BFFC001FF0
001FFC000FF4
000BF8000FF4
0007F8000BF4
0007F8000BF4
0007F8000FF4
0003F8000FF0
0003F4001FE0
0003F4002FC0
0003F4007F40
0003F802F900
0007FEFF9000
0007F4000000
0007F8000000
0007F8000000
0007F8000000
0007F8000000
000BF8000000
000BF8000000
000BF8000000
000BF8000000
000FFC000000
000FFC000000
001FFD000000
002FFE000000
007FFF800000
06FFFFE40000
2A50016BC000
ENDCHAR
STARTCHAR Q
ENCODING 81
SWIDTH 804 0
DWIDTH 29 0
BBX 42 44 0 -16
BITMAP
00001AFFA4000000000000
0001A405BF900000000000
000B40001FF80000000000
003D000002FF0000000000
00F8000000BFC000000000
02F00000003FE000000000
0BD00000001FF400000000
0FC00000000BFC00000000
2F8000000007FD00000000
3F8000000003FE00000000
7F4000000002FF00000000
7F4000000001FF40000000
BF4000000001FF40000000
BF4000000000FF40000000
BF4000000000FF40000000
BF8000000000FF40000000
BF8000000000FF40000000
BFC000000000FF40000000
7FD000000000FF00000000
7FD00000BF91FE00000000
3FF00003FFF9FD00000000
2FF4000B41FFFC00000000
1FF8001D007FF800000000
0BFD0018002FF000000000
03FF4028001FE000000000
01FFD024002FE000000000
007FF82400BFF000000000
001FFFA417FBF800000000
0001FFFFFF87FC00000000
00001AFFA403FD00000000
000000000003FE00000000
000000000002FF00000000
000000000002FF40000000
000000000001FF80000000
000000000000FFC0000040
000000000000BFD0000090
0000000000007FF00000C0
0000000000003FF4000180
0000000000002FFC000280
0000000000001FFE000700
0000000000000BFFD06E00
00000000000003FFFFF800
00000000000000BFFFE000
000000000000001BFE4000
ENDCHAR
STARTCHAR R
ENCODING 82
SWIDTH 869 0
DWIDTH 31 0
BBX 33 26 0 -1
BITMAP
000001BFA400000000
0005AE02FE00000000
BFFFF800BF40000000
06FFF4003FC0000000
00BFF0003FD0000000
003FE0002FE0000000
002FE0002FE0000000
002FE0002FE0000000
001FE0003FD0000000
001FE0003FC0000000
000FE000BF80000000
000FE001FF00000000
000FE007FD00000000
000BE16FE000000000
000BFFFFD000000000
000BE03FE000000000
000BE02FF000000000
000BE01FF800000200
0007E00BFD00000200
0007F007FF40000240
0007F001FFD0000240
0007F000BFF8000740
000BF4002FFF901F00
001FF8000BFFFFFD00
2FFFFE0001BFFFF400
00000690001AFF9000
ENDCHAR
STARTCHAR S
ENCODING 83
SWIDTH 517 0
DWIDTH 19 0
BBX 20 34 -1 -4
BITMAP
0000000004
000000000C
00001BF918
0001F907B8
0007E001F4
000FD000B4
001FC00030
001FC00030
002FD00020
001FF00000
001FF80000
000FFD0000
000BFF0000
0003FFC000
0001FFE000
0000BFF800
00002FFE00
00000FFF40
000007FFC0
000001FFE0
000000BFF4
0000003FFC
6000001FFD
3000000BFE
28000007FE
2C000003FE
1D000002FE
0F000002FE
0F400002FD
0FC00002FC
0FF00003F8
0FFC000BE0
0E5B906F80
08006FE800
ENDCHAR
STARTCHAR T
ENCODING 84
SWIDTH 659 0
DWIDTH 24 0
BBX 25 37 0 -5
BITMAP
3FA5500005AF80
7FFFFFFFFFFF80
7F90007F017F80
3E00007F000F80
3D00007F000780
2D00007F000340
1D00007F000340
1D00007F000300
0E00007F000200
0A0000BF000000
070000BF000000
034000BF000000
014000BF000000
000000BF000000
000000BF000000
000000BF000000
000000FF000000
000000FF000000
000000FF000000
000000FF000000
000000FF000000
000000FF000000
000000FF000000
000001FF000000
000001FF000000
000001FF000000
000001FF000000
000001FF000000
000002FF000000
000002FF400000
000003FFC00000
00000BFFE40000
00001FFFFFF400
00003F94000000
0001E400000000
000A4000000000
00040000000000
ENDCHAR
STARTCHAR U
ENCODING 85
SWIDTH 690 0
DWIDTH 25 0
BBX 27 28 0 2
BITMAP
00000019000000
000001B8000000
00016F80000000
05AFFE00000000
BFFFFC00000000
07FFF400000000
01FFF40BEAAA54
00FFF0006FFC00
00BFE00002F400
00BFE00000F400
00BFE00000F000
007FE00000B000
007FD00000B000
007FD000007000
007FE000007000
007FE000007000
007FE000007000
003FE000006000
003FF000006000
002FF000006000
002FF400009000
001FF80000C000
000FFC00018000
0007FD00034000
0002FF000B0000
0000BFD06D0000
00002FFFF40000
000006FF800000
ENDCHAR
STARTCHAR V
ENCODING 86
SWIDTH 798 0
DWIDTH 29 0
BBX 32 28 0 1
BITMAP
0000005500000000
00005B8000000000
BFFFFE0000000000
01BFFE0000000005
000BFE0000000028
0003FF00000001E0
0001FF8000001B80
0000BFC00016FE00
00003FD003FFFC00
00002FF00003F400
00000FF40002E000
00000BFC0002C000
000007FD00038000
000002FF00074000
000001FF400A0000
000000FFC00D0000
000000BFE0180000
0000003FF0240000
0000002FF8700000
0000001FFD900000
0000000FFFC00000
00000007FF800000
00000003FF400000
00000002FE000000
00000001FD000000
00000000BC000000
0000000078000000
0000000020000000
ENDCHAR
STARTCHAR W
ENCODING 87
SWIDTH 1120 0
DWIDTH 40 0
BBX 46 31 -1 -3
BITMAP
000000000000000024000000
00000000000000001BA50000
000000000000000001BFFFE0
0000000000000000002FD000
0000000000000000002F0000
0000050000000000003D0000
00002C000000000000380000
0000B4000000000000740000
000BE0000000000000B00000
01BFE0000000000000D00000
AFFFE0000000000002C00000
55BFF00000D0000003400000
001FF40002F0000007000000
000BF80007F800000A000000
0007FC000BFD00000D000000
0003FD0019FF000028000000
0002FE0034BF800034000000
0001FF40607FD00070000000
0000FF80D03FF000D0000000
0000BFD2801FF801C0000000
00007FE7400FFD0340000000
00003FFE000BFF0700000000
00002FFD0003FF8E00000000
00001FF80002FFFC00000000
00000FF00001FFF800000000
00000BE00000BFF400000000
000007C000007FE000000000
0000028000003FD000000000
0000000000001F8000000000
0000000000000F4000000000
000000000000060000000000
ENDCHAR
STARTCHAR X
ENCODING 88
SWIDTH 868 0
DWIDTH 31 0
BBX 32 29 0 -1
BITMAP
0000000640000000
000056FE00000000
BFFFFFF800000000
016FFFF400240000
0002FFF8000A4000
00007FFC0001F940
00001FFD0001E400
00000BFE00018000
000002FF40034000
000000FFC0050000
0000007FE0080000
0000002FF4240000
0000001FFCA00000
0000000BFFC00000
00000007FF800000
00000007FFC00000
0000000BFFD00000
0000001D2FF00000
000000381FF40000
000000A007FC0000
000002C002FE0000
0000074001FF4000
00001E0000BF8000
00007D00003FD000
001BFC00001FF400
2FFFFC00000FFC00
0016FE00001FFF40
00001B803FFFFFE4
0000004000000169
ENDCHAR
STARTCHAR Y
ENCODING 89
SWIDTH 796 0
DWIDTH 29 0
BBX 32 36 0 -5
BITMAP
0000068000000000
0016B90000040000
7FFFE000000BA500
06FFD0000000FFFE
007FF0000000B800
001FF8000001D000
0007FD0000024000
0002FF4000060000
0000BFC0001C0000
00003FF000340000
00001FF800900000
000007FE02800000
000002FFDB000000
000000FFFD000000
0000007FF8000000
0000002FF4000000
0000001FF0000000
0000000FF0000000
0000000BF0000000
0000000BF0000000
0000000BF0000000
0000000BF0000000
0000000BF0000000
0000000BF4000000
0000000BF4000000
0000000BF4000000
0000000BF4000000
0000000FF4000000
0000000FF4000000
0000000FF8000000
0000001FF8000000
0000002FF8000000
000001BFFC000000
00007FFFFE000000
000000016B900000
0000000000500000
ENDCHAR
STARTCHAR Z
ENCODING 90
SWIDTH 627 0
DWIDTH 23 0
BBX 23 31 1 -5
BITMAP
240000000000
3E90005B0000
3FFFFFFF0000
3F402FFE0000
3C002FFD0000
38002FFC0000
30003FF40000
30007FF00000
2000BFE00000
6000BFD00000
1000FFC00000
0001FF800000
0002FF400000
0003FF000000
0003FD000000
0007FC000000
000BF8000100
000FF4000200
001FF0000300
002FE0000340
002FD0000280
003FC0000380
007F800003C0
00BF400007D0
00FF00000BE0
01FE00001FF0
02FD0000BFF0
03FC005BFFF4
07FEAA940054
07FA40000000
054000000000
ENDCHAR
STARTCHAR bracketleft
ENCODING 91
SWIDTH 344 0
DWIDTH 12 0
BBX 12 36 0 -7
BITMAP
01FA40
02FFF9
03F805
03F400
07F000
07F000
0BE000
0BE000
0FE000
0FD000
0FD000
1FD000
1FD000
1FC000
2FC000
2FC000
2FC000
3FC000
3FC000
3FC000
3FC000
3F8000
7F8000
7F8000
7F8000
7F8000
7F8000
BF8000
BF8000
BF8000
BF8000
BFC000
BFC000
7FD000
7FF400
0AFFFD
ENDCHAR
STARTCHAR backslash
ENCODING 92
SWIDTH 347 0
DWIDTH 13 0
BBX 12 39 0 -5
BITMAP
900000
700000
740000
340000
280000
1C0000
0D0000
0A0000
0B0000
070000
034000
028000
01C000
00D000
00E000
00A000
007000
003400
002800
002C00
001D00
000E00
000A00
000700
000340
000380
0002C0
0001D0
0000E0
0000B0
000074
000034
000028
00001C
00001D
00000E
00000A
000007
000002
ENDCHAR
STARTCHAR bracketright
ENCODING 93
SWIDTH 334 0
DWIDTH 12 0
BBX 12 34 0 -9
BITMAP
000680
0AFFD0
041FE0
001FE0
001FE0
000FF0
000FF0
000FF0
000FF0
000FF4
000FF4
000FF4
000BF8
000BF8
000BF8
000BF8
000BFC
000BFC
000BFC
000BFC
000BFD
0007FD
0007FD
0007FD
000BFE
000BFE
000BFE
000BFE
000FFD
002FD0
00B900
079000
7D0000
500000
ENDCHAR
STARTCHAR asciicircum
ENCODING 94
SWIDTH 658 0
DWIDTH 24 0
BBX 20 9 2 19
BITMAP
0000A00000
0001F40000
0007FD0000
001FFF4000
007FFFD000
02F91FF400
2F9002FE00
E400002FE0
00000001BE
ENDCHAR
STARTCHAR underscore
ENCODING 95
SWIDTH 678 0
DWIDTH 24 0
BBX 21 3 2 -11
BITMAP
000156ABFF40
1AFFFFFFFF40
FEA955000000
ENDCHAR
STARTCHAR grave
ENCODING 96
SWIDTH 278 0
DWIDTH 10 0
BBX 6 7 2 27
BITMAP
F400
FD00
7F00
2F80
0BD0
01F0
0070
ENDCHAR
STARTCHAR a
ENCODING 97
SWIDTH 527 0
DWIDTH 19 0
BBX 21 26 0 -4
BITMAP
002FE4000000
00D07E000000
02801F800000
07400FD00000
0B400BE00000
0BD00BF00000
0BF807F40000
07FD07F40000
03FD07F80000
01B803F80000
000003FC0000
000003FC0000
006FFBFD0000
07E406FD0000
1F8002FE0000
2F4001FE0000
7F0001FF0000
7F0001FF0000
7F4002FF4000
7FD02FFF4100
3FFFFCBF8200
1FFFE07FC240
02FE403FD300
0000002FFF00
0000001FFE00
00000006F800
ENDCHAR
STARTCHAR b
ENCODING 98
SWIDTH 582 0
DWIDTH 21 0
BBX 24 41 -3 0
BITMAP
000140000000
000240000000
000380000000
000B80000000
002F80000000
06FF80000000
BFFF80000000
007F80000000
002F80000000
002F80000000
001F80000000
001FC0000000
001FC0000000
001FC0000000
001FC0000000
000FC0000000
000FC0000000
000FC0000000
000FD0000000
000FD0000000
000FD0000000
000FD0000000
000FD0000000
000FD01BF900
000BE1FFFF80
000BE740BFE0
000BF8001FF4
000BF0000BFC
000BF00007FD
000BF00003FD
000BF00003FD
000BF40003FD
000BF40003FD
0007F40003FC
0007F80007F8
0007FC000BF0
0007FD001FD0
000BFF407F40
001FFFFFE400
007F95400000
039400000000
ENDCHAR
STARTCHAR c
ENCODING 99
SWIDTH 437 0
DWIDTH 16 0
BBX 15 20 0 2
BITMAP
0006FE40
00647FD0
01C03FF0
07402FF4
0B002FF4
1E001FF0
2E000BD0
3D000000
7D000000
7E000060
7E000024
7F00001C
7F00001C
3F80001C
3FC0001C
1FF0003C
0FFD01F4
07FFFFE0
01FFFF80
001BF900
ENDCHAR
STARTCHAR d
ENCODING 100
SWIDTH 523 0
DWIDTH 19 0
BBX 20 34 0 2
BITMAP
0000000240
0000000B40
000000BF40
00000BFF40
000079FF40
000000BF40
000000BF40
000000BF40
000000BF40
000000BF40
000000BF00
000000BF00
000000BF00
000000BF00
000000BF00
0000007F00
0000007F00
0000007F00
0000007F00
0000007F00
006FFABF00
02FD01BF00
0FF0007F00
2FD0007F00
3FC0007F00
7F80007E00
BF80007E00
BF80007E00
7FC0007E00
7FC0007E00
2FD0007E00
1FF000BF00
07FD02FF90
006FFEAAA9
ENDCHAR
STARTCHAR e
ENCODING 101
SWIDTH 434 0
DWIDTH 16 0
BBX 15 20 0 1
BITMAP
0006FE40
007E07E0
01F802F4
07F001F8
0FE000FC
1FD000FC
2FC001FC
3FC001F8
7F8003F4
7F800BE0
7F906F80
7FEFE824
7FC00018
3FC0001C
2FD0001C
1FF0001C
0BF80038
07FE41B4
00BFFFD0
001BFE00
ENDCHAR
STARTCHAR f
ENCODING 102
SWIDTH 299 0
DWIDTH 11 0
BBX 19 46 -2 -6
BITMAP
000001BE40
00000A42E0
00002800B4
00007400B8
0000A000FC
0000D002FC
0001D02FFC
0002C0FFF8
0003C1FFF4
000780FFE0
0007806F40
000B800000
000B800000
000F800000
000FC00000
001FD05800
007FFE9400
6BFFE00000
102FC00000
001FC00000
001FC00000
001FC00000
001FC00000
001FC00000
001FC00000
001FD00000
001FD00000
001FD00000
001FD00000
001FD00000
001FD00000
001FD00000
001FD00000
001FD00000
001FD00000
001FE00000
001FE00000
001FE00000
001FE00000
001FE00000
001FE00000
001FF00000
002FF90000
003FFFF400
00B9000000
0A40000000
ENDCHAR
STARTCHAR g
ENCODING 103
SWIDTH 567 0
DWIDTH 20 0
BBX 23 35 -1 -14
BITMAP
00000000BF80
000000051FE0
000000180FF4
0006FEB41FF4
007F91BD1FF0
01FF003F4BD0
03FD002F8000
07FD001FD000
0BFC001FD000
0BFC001FD000
0BFC001FD000
07FC001FC000
03FD002F8000
01FE007F4000
007F81FD0000
000BFF900000
002E00000000
00B800000000
00B800000000
007E40000000
0007FE940000
001F45BF9000
00BD000BF400
03F40002FD00
0FF00000FF00
2FD00000BF40
3FD000007F40
7FC000003F40
7FC000007F00
7FD000007E00
3FE00000BC00
2FF00001F400
0FFC0003D000
02FF406D0000
006BFE900000
ENDCHAR
STARTCHAR h
ENCODING 104
SWIDTH 566 0
DWIDTH 20 0
BBX 23 39 -2 0
BITMAP
000024000000
0000B4000000
0002F4000000
001FF0000000
01FFF0000000
1EAFE0000000
000BE0000000
0007E0000000
0007E0000000
0007D0000000
0007D0000000
0007D0000000
0007D0000000
0007D0000000
000BC0000000
000BC0000000
000BC0000000
000BC0000000
000BC0000000
000FC0000000
000F80000000
000F80000000
000F81BE4000
001F87FFE000
001F9D1FF400
001FB407FC00
001FE003FC00
001FD002FD00
002FC002FD00
002FC002FD00
002F8002FD00
003F8002FD00
003F4002FD00
003F4002FD00
007F4002FD00
00BF4002FD00
01FF4003FE00
7FFF900BEAF4
0005B8140000
ENDCHAR
STARTCHAR i
ENCODING 105
SWIDTH 301 0
DWIDTH 11 0
BBX 11 25 0 3
BITMAP
00B900
01FE00
01FE00
00B900
000000
000240
001B00
05BF00
7FFF00
07FE00
02FE00
01FE00
01FD00
01FD00
01FD00
01FD00
01FC00
01FC00
01FC00
01FC00
01FC00
02FC00
02FC00
07FE40
7EAFF4
ENDCHAR
STARTCHAR j
ENCODING 106
SWIDTH 367 0
DWIDTH 13 0
BBX 17 41 -4 -18
BITMAP
00000B8000
00002FE000
00002FD000
00000B8000
0000000000
0000000000
0010016400
001BFFFC00
00007FFD00
00001FFD00
00000BFE00
000003FE00
000002FF00
000001FF00
000000FF00
000000BF00
000000BF40
0000007F40
0000007F40
0000003F40
0000003F40
0000003F40
0000002F40
0000002F40
0000002F40
0000002F40
0000002F40
0000002F00
06F4002F00
1FFD002F00
3FFE003E00
BFFE003D00
FFFC003D00
FF90007C00
F80000B800
F00000F000
B00001E000
700003C000
28000B0000
0A41780000
01BF900000
ENDCHAR
STARTCHAR k
ENCODING 107
SWIDTH 567 0
DWIDTH 20 0
BBX 23 40 -3 -4
BITMAP
000060000000
0002E0000000
001BE0000000
06FFE0000000
7FFFE0000000
001FE0000000
000BE0000000
0007E0000000
0007E0000000
0007E0000000
0007E0000000
0007E0000000
0007E0000000
0007E0000000
0007E0000000
0003E0000000
0003F0500000
0003F06E5000
0003F007FF80
0003F003D000
0003F00A0000
0003F0180000
0003F0700000
0003F5E00000
0003FBF00000
0003FFF40000
0003F6F80080
0003F5FC0020
0003F8FE0018
0003F8BF400C
0003F83FC01C
0003F81FF42C
0003F80BFFF8
0003FC02FFF4
0003FC006F90
0003FC000000
0003FD000000
0007FE000000
000BFF400000
05AFFFFF4000
ENDCHAR
STARTCHAR l
ENCODING 108
SWIDTH 354 0
DWIDTH 13 0
BBX 15 34 -2 0
BITMAP
00002000
0000A000
0001E000
0007E000
001FE000
007FE000
02FFE000
2FBFF000
A42FF000
001FF000
000FF000
000FF000
000FF000
000BF000
000BF000
000BF400
0007F400
0007F400
0007F400
0007F400
0003F400
0003F400
0003F800
0003F800
0002F800
0002F800
0002F800
0002FC00
0001FC00
0001FC00
0001FD00
0006FF40
00BFFFF4
00540010
ENDCHAR
STARTCHAR m
ENCODING 109
SWIDTH 708 0
DWIDTH 25 0
BBX 24 16 1 3
BITMAP
002000000000
01F000000000
6FF06F40BF40
6FF6FFD2FFD0
07FA0FF91FF0
03FC07F80BF0
03F807F407F4
02F807F007F0
02F407F007F0
01F407F00BF0
01F40BF40BF0
01F87FFD1FF0
02FC00197FF0
6FFE40001BF0
0001500000B8
00000000001A
ENDCHAR
STARTCHAR n
ENCODING 110
SWIDTH 584 0
DWIDTH 21 0
BBX 21 23 0 -1
BITMAP
002400000000
007800000000
01F800BF8000
07FC03FFE000
2FFC0BFFF800
52FD281FFC00
01FD2007FD00
00FD9002FD00
00BE8002FD00
00BF8001FD00
007F8001FD00
003F4001FD00
003F4001FC00
002F4001FC00
002F4001FC00
001F4001F800
001F4001F800
000F8002F800
000F8007F800
001FD1FFF800
03FFF806FC00
010014001F00
0000000002C0
ENDCHAR
STARTCHAR o
ENCODING 111
SWIDTH 503 0
DWIDTH 18 0
BBX 18 17 0 3
BITMAP
001AFE4000
00BD07F400
03F401FD00
0BF000BF00
1FE0003F80
2FD0002FC0
3FD0002FD0
3FD0001FD0
7FD0001FD0
7FD0001FD0
3FE0001FD0
2FE0001FC0
1FF0001F80
0BF8002F00
03FD007D00
00BF41F400
001AFE4000
ENDCHAR
STARTCHAR p
ENCODING 112
SWIDTH 509 0
DWIDTH 18 0
BBX 17 33 1 -14
BITMAP
0018000000
0078000000
01F82FE000
1FF9FFFD00
A7FB42FF00
02FD00BF40
02FC007F80
02F8003F80
02F4003F80
02F4003F80
02F4003F80
02F4003F40
02F4007F00
02F800BD00
02FC00F800
02FE47E000
02FDBE4000
02F8000000
02F8000000
02F8000000
02F8000000
02F8000000
03F8000000
03FC000000
03FC000000
03FC000000
03FC000000
03FC000000
03FD000000
07FD000000
0FFF000000
BFFFD00000
0005A40000
ENDCHAR
STARTCHAR q
ENCODING 113
SWIDTH 505 0
DWIDTH 18 0
BBX 18 34 0 -16
BITMAP
000001FF80
00BFA1FC00
07F81AF800
1FD002F800
3FC002F800
7F8001F800
7F8001F800
7F8002F800
7F8002F800
3FC002F800
2FE003F800
0BF90BF800
01BF92F800
000002F800
000002F800
000002F800
000002F800
000002F800
000002F800
000002F800
000003F800
000003F800
000003F800
000003F800
000003F800
000003F800
000003F800
000003F800
000003F800
000007F800
000BFFFC00
000005BF40
00000006F0
0000000010
ENDCHAR
STARTCHAR r
ENCODING 114
SWIDTH 414 0
DWIDTH 15 0
BBX 16 25 1 0
BITMAP
00000BE4
0000242D
0060900E
00E1802F
17E201FF
FFE603FF
0BFA03FD
07FD01F8
03FD0000
03FC0000
03FC0000
03FC0000
02FC0000
02FC0000
02FD0000
02FD0000
01FD0000
01FE0000
01FE0000
01FF0000
01FF0000
00FF4000
01FF8000
07FFFD00
7A500000
ENDCHAR
STARTCHAR s
ENCODING 115
SWIDTH 482 0
DWIDTH 17 0
BBX 19 27 -1 -4
BITMAP
0000000140
00006FE740
0002E42F00
000BC00B00
000F800600
001F800600
001FC00600
001FE00100
000BF40000
0007FD0000
0002FF8000
0000BFE000
00002FF800
00000FFE00
000003FF40
000001FFC0
0008007FE0
001C002FF0
0038001FF4
0074000BF4
01F0000BF4
03F0000BF4
0BF0000BF0
29B4000FD0
502C002F80
000B41BE00
0001AFE400
ENDCHAR
STARTCHAR t
ENCODING 116
SWIDTH 434 0
DWIDTH 16 0
BBX 16 28 0 -1
BITMAP
00002400
00007800
0000B400
0000F000
0002F000
0007E000
000FE000
007FFBD0
6FFFE400
00BF8000
00FF4000
00FF0000
01FE0000
02FD0000
02FD0000
03FC0000
03FC0000
07F80000
07F80000
07F80000
07F800B8
07F801FC
03F800FD
02FC007C
01FD002C
00BF0024
002FD0A0
0006FE40
ENDCHAR
STARTCHAR u
ENCODING 117
SWIDTH 744 0
DWIDTH 27 0
BBX 27 19 0 1
BITMAP
00050000028000
001E00006F8000
007F002FFFC000
06FF00002FC000
7AFF40001FC000
007F40000FC000
003F80000FD000
002F80000FD000
002FC0000FD000
002FC0001FD000
001FD0001FE000
001FE0002BE000
000FF00027F000
000BF40063F400
000BFC0093FEB8
0003FE42C1E940
0002FFFF400000
0000BFFE000000
00001BE4000000
ENDCHAR
STARTCHAR v
ENCODING 118
SWIDTH 600 0
DWIDTH 22 0
BBX 21 22 0 -1
BITMAP
0000A0000000
000BC0000000
01BF80000000
6FFF80000000
51FFC0000040
007FD00FFF80
003FE000B800
001FF000B000
000FF400A000
000BF800D000
0003FC00C000
0002FD018000
0001FF024000
0000BF430000
00007F860000
00002FC90000
00001FEC0000
00000FF80000
000007F40000
000003F00000
000001E00000
000000800000
ENDCHAR
STARTCHAR w
ENCODING 119
SWIDTH 745 0
DWIDTH 27 0
BBX 27 20 0 -1
BITMAP
00001000000000
000190000001B8
001F000000AF90
06FF0006000E00
BFFF000B001D00
02FF401F801C00
01FF802FC02800
00FF803FE02400
00BFC06FF03000
007FD09BF87000
003FE087FC6000
002FF142FE9000
001FF701FFC000
000FFA00BF8000
000BFD003F4000
0007FC001F0000
0003F800090000
0002F400000000
0000E000000000
00009000000000
ENDCHAR
STARTCHAR x
ENCODING 120
SWIDTH 548 0
DWIDTH 20 0
BBX 20 22 0 0
BITMAP
00001A0000
0016F40000
FFFFD00000
06FFD05400
00BFE06FFE
003FF00B40
001FF41D00
000FF83400
0007FDA000
0003FFC000
0001FF4000
0000FF4000
00007F8000
00003FC000
00007FD000
0000FFE000
00038FF400
000E07F800
01BD03FE40
0E9502FFF8
0000069000
0000740000
ENDCHAR
STARTCHAR y
ENCODING 121
SWIDTH 659 0
DWIDTH 24 0
BBX 24 36 0 -16
BITMAP
000028000000
0002E0000000
002F40000019
06FE002FFFF8
7FFD0001FFE0
03FD00007FD0
03FD00003FD0
02FD00003FD0
02FE00003FD0
01FE00003FD0
00FE00003FC0
00FF00003FC0
00BF40003FC0
007F40007F80
003FC000BF80
002FD000EF80
001FF0026F40
000BFD0A2F40
0002FFF82F00
00006F902F00
000000003E00
000000003E00
000000003D00
000000007C00
000000007800
00000000B400
000BE400B000
002FFC00E000
007FFD01D000
0097FD02C000
00C1F8034000
00C0000A0000
0080001D0000
006000740000
002906D00000
0006F9000000
ENDCHAR
STARTCHAR z
ENCODING 122
SWIDTH 460 0
DWIDTH 17 0
BBX 17 20 0 0
BITMAP
2E95000000
3FEABFF400
3E000BF000
3C001FE000
34002FD000
30007F8000
7000BF4000
6001FE0000
5003FD0000
0007F80000
000FF40000
002FF00000
007FD00040
00BFC00180
01FF400180
03FF000280
0BFE000B80
1FFD05BF40
3FFFFFFF40
2A50000000
ENDCHAR
STARTCHAR braceleft
ENCODING 123
SWIDTH 460 0
DWIDTH 17 0
BBX 16 45 0 -11
BITMAP
00001BE4
0000B81A
0002F000
0003E000
0007E000
000BE000
000BE000
000BF000
000BF400
0007F400
0007F800
0007FC00
0003FC00
0003FD00
0003FD00
0003FD00
0003FC00
0007F800
000FF400
007FD000
1BFE0000
7F900000
0B900000
00B80000
002F0000
000F8000
000BD000
0007E000
0003F000
0003F400
0003F400
0003F800
0007F800
0007F800
0007F800
0007F800
0007F800
0007F800
0007F800
0007F801
0007FC02
0003FD03
0002FF4B
0000FFFD
00002BE4
ENDCHAR
STARTCHAR bar
ENCODING 124
SWIDTH 368 0
DWIDTH 13 0
BBX 3 38 5 -7
BITMAP
60
A0
A0
A0
A0
60
60
60
60
70
70
70
70
70
70
70
30
30
30
34
34
34
34
34
24
24
24
24
28
28
28
28
18
18
18
18
18
08
ENDCHAR
STARTCHAR braceright
ENCODING 125
SWIDTH 476 0
DWIDTH 17 0
BBX 17 38 0 -9
BITMAP
01BF800000
0BFFF40000
2D1FFC0000
7007FE0000
9003FE0000
0003FF0000
0002FF0000
0002FF0000
0002FF0000
0001FF0000
0001FF0000
0000FF0000
0000BF0000
00003F4000
00000BD540
000001AF40
0000003800
000000F400
000002F400
000003F400
000003F400
000003F800
000002FC00
000001FD00
000001FE00
000000FE00
000000BF00
0000007F40
0000007F40
0000003F40
0000003F40
0000003F40
0000003F00
0000003D00
0000007800
000001F000
00001B8000
0003E90000
ENDCHAR
STARTCHAR asciitilde
ENCODING 126
SWIDTH 733 0
DWIDTH 26 0
BBX 23 7 2 6
BITMAP
000000000018
00BF90000074
07FFFD0001F0
1D06FFE40BD0
30007FFFFF80
900007FFFE00
4000006FE400
ENDCHAR
STARTCHAR nonbreakingspace
ENCODING 160
SWIDTH 270 0
DWIDTH 10 0
BBX 1 1 0 0
BITMAP
00
ENDCHAR
STARTCHAR exclamdown
ENCODING 161
SWIDTH 247 0
DWIDTH 9 0
BBX 5 38 2 -4
BITMAP
7E00
FF40
FF40
FF40
7D00
0000
0000
0000
0000
1800
1C00
1D00
1D00
1E00
1E00
2F00
2F00
2F00
2F00
2F40
2F40
3F40
3F80
3F80
3F80
7F80
7F80
7FC0
BFC0
BFC0
BFC0
FFC0
FFC0
FFC0
FFC0
FF80
BF40
2E00
ENDCHAR
STARTCHAR cent
ENCODING 162
SWIDTH 799 0
DWIDTH 29 0
BBX 17 32 6 -8
BITMAP
0020000000
0024000000
0014000000
0018000000
000EFE4000
007E41F400
01F9007C00
07D6003E00
0FC2003F00
2F4200BF40
3F4240FF40
BF0181FF40
BF0081FF00
FF00C0BD00
FF00900000
FF00600000
FF40600000
FF40300000
BFC0240080
7FD0280240
3FF4180B00
1FFE4C6D00
07FFFFF800
01FFFFE000
001BFF0000
0000030000
0000034000
0000028000
000001C000
000000D000
000000A000
0000001000
ENDCHAR
STARTCHAR sterling
ENCODING 163
SWIDTH 799 0
DWIDTH 29 0
BBX 20 33 5 -5
BITMAP
0000AFA000
000B907D00
002E001F00
007C001F80
00F8003FC0
02F400BFC0
03F402FFC0
03F803FFC0
07F803FF80
07FC02FF40
07FC00B900
07FE000000
03FF000000
03FF400000
02FF9A9000
01FFE40000
1BFFE00000
E97FF00000
003FF80000
002FFC0000
000FFC0000
000BFD0000
0007FD0000
0003FE0000
0001FE0018
0001FD0009
0000FD0003
06FEFC0003
2906FD0007
7001EFE41E
600382FFFC
341E006FE0
1BE4000000
ENDCHAR
STARTCHAR currency
ENCODING 164
SWIDTH 732 0
DWIDTH 26 0
BBX 22 26 2 0
BITMAP
000000014000
000000074000
0000000F0000
9000002D0000
7406FFFD0000
2E79006F4000
0BD00002C000
07400000A000
0E0000007400
1C0000003800
2C0000002800
380000002800
380000003800
380000003400
380000007000
2C000000D000
1E0000028000
0B40000B0000
03E401B7D000
01FFFE40F400
02E000002E00
03D000000780
0B80000001A0
0F4000000010
0E0000000000
040000000000
ENDCHAR
STARTCHAR yen
ENCODING 165
SWIDTH 799 0
DWIDTH 29 0
BBX 27 39 1 -6
BITMAP
00000050000000
00005BD0000000
6FFFFF00000014
02FFFD00000290
007FFD00016E00
001FFE007FF400
0007FF0001E000
0002FF4001C000
0000FF80024000
0000BFD0030000
00003FE0060000
00002FF4080000
00000FFC180000
00000BFD240000
000003FFB00000
000002FFE00000
000001FFE00000
000000FFD00000
000000BFD00000
0000007FD00000
0006AAFFFFFFE0
0000007FC00000
0000003FC00000
000001BFEFF400
0002FFFFD40000
000154BFC00000
0000007F800000
0000007F800000
0000007F800000
0000007F800000
0000007FC00000
0000007FC00000
000000BFC00000
000000FFD00000
000001FFF90000
000007FFFFD000
00002FA5400000
0002E400000000
00010000000000
ENDCHAR
STARTCHAR brokenbar
ENCODING 166
SWIDTH 341 0
DWIDTH 12 0
BBX 2 42 5 -10
BITMAP
60
60
60
60
60
60
60
60
60
60
60
60
A0
60
60
10
00
00
00
00
60
60
60
60
70
70
70
70
70
70
70
70
70
70
70
70
B0
B0
B0
B0
A0
60
ENDCHAR
STARTCHAR section
ENCODING 167
SWIDTH 546 0
DWIDTH 20 0
BBX 17 41 1 -11
BITMAP
0002BF9000
002E41F800
00B8007E00
01F0003F40
03F0007F80
07F000BF80
07F000FF80
07F400BF40
07FC006E00
07FE000000
03FF800000
01FFE00000
00BFFD0000
02EFFF8000
0B8BFFE000
1F01BFF800
2F001FFE00
3F0002FF40
7F00007F80
3F80001F80
3FE0000BC0
2FF8000780
0FFF400740
07FFE00B00
00FFF80D00
002FFF7400
0006FFE000
00007FF000
00000BF800
000001FD00
0000007E00
0000002F00
0000000F00
0000000B00
0000000700
002E000600
007F800900
00BFD00C00
007FF47400
002FFFD000
000BFA0000
ENDCHAR
STARTCHAR dieresis
ENCODING 168
SWIDTH 393 0
DWIDTH 14 0
BBX 9 4 3 23
BITMAP
2E0B40
7F5F80
7F6F80
2E0F40
ENDCHAR
STARTCHAR copyright
ENCODING 169
SWIDTH 1023 0
DWIDTH 37 0
BBX 33 33 2 -5
BITMAP
000001AFFE90000000
00002E5005AE400000
0002D0000002F40000
001E000000002E0000
007400000000078000
01D00000040001E000
038000000800007800
0B0000000800003D00
0D0001BFFC00001E00
2C000B90BC00000F00
34002F001C00000740
70007D000800000780
B000FC000500000380
A001FC0001000003C0
E001FC0000000003C0
D001FC0000400003C0
D001FD0000800003C0
D001FD0000C00003C0
D000FF000180000780
D0007F800340000780
E0002FE41B00000B40
B0000BFFFC00000F00
B40001BFA000001E00
780000000000003D00
2D0000000000007800
1E000000000001F400
0B800000000007E000
03E0000000001F8000
00F800000000BE0000
002F80000007F80000
000BFA4005BF900000
0000BFFFFFF9000000
000006BFFA40000000
ENDCHAR
STARTCHAR ordfeminine
ENCODING 170
SWIDTH 558 0
DWIDTH 20 0
BBX 18 18 1 11
BITMAP
01BF800000
0B42F40000
1E00B80000
3E007D0000
3F403E0000
7F803E0000
3F803F0000
1F403F0000
006FFF0000
02E43F0000
0B802F0080
1F402F40D0
2F002F4090
2F403F80D0
2F91DFD1C0
2FFF87FF80
0FFF01BE00
02F8000000
ENDCHAR
STARTCHAR guillemotleft
ENCODING 171
SWIDTH 608 0
DWIDTH 22 0
BBX 18 32 2 -9
BITMAP
0000000050
0000000090
00000000D0
00000000C0
00000601C0
0000090280
00001C0380
0000380740
0000B40B00
0002E01E00
000BD02D00
002F807D00
00BF00FC00
07FD02F800
2FF80BF800
FFF00FFD00
BFF407FF00
2FFC01FF40
0BFE007F80
02FF402FC0
00BFC00FD0
002FD007E0
000BF003E0
0003F802F0
0001FC00F0
00007E00B0
00002F0070
00000F8030
000007C010
000001D000
000000A000
0000001000
ENDCHAR
STARTCHAR logicalnot
ENCODING 172
SWIDTH 616 0
DWIDTH 22 0
BBX 19 8 2 8
BITMAP
FFFFFFFFF0
FFEAAA9AF4
00000000B4
0000000074
0000000074
0000000070
0000000070
0000000060
ENDCHAR
STARTCHAR uni00AD
ENCODING 173
SWIDTH 436 0
DWIDTH 16 0
BBX 12 2 2 7
BITMAP
540015
AFFFFA
ENDCHAR
STARTCHAR registered
ENCODING 174
SWIDTH 1048 0
DWIDTH 38 0
BBX 35 33 1 -8
BITMAP
0000005AFFA5000000
000007E50016E00000
0000790000001A0000
000690000000019000
001E00000000002400
00740006BF90000900
00E07FFD07F8000240
02C007F801FD000180
074002F400FE000090
0A0001F400FE000060
1D0001F400FE000020
1C0001F400FD000024
2C0001F802FC000018
380001F807F4000008
380001F86F8000000C
380001FFFD0000000C
780001F8BE0000000C
380001F87F0008000C
380001F83F40050008
380001FC2FC0060018
3C0001FC0FE0060024
2D0002FD07F91E0024
1E0003FE01FFFC0030
0F001FFF801BE00060
0B41FAABE4000000C0
03C000001400000180
01E000000000000700
00B800000000000D00
002E00000000007400
0007D000000001D000
0000B90000001E0000
00001BE50016E00000
0000006BFFE9000000
ENDCHAR
STARTCHAR macron
ENCODING 175
SWIDTH 382 0
DWIDTH 14 0
BBX 10 1 2 28
BITMAP
ABFFE0
ENDCHAR
STARTCHAR degree
ENCODING 176
SWIDTH 346 0
DWIDTH 12 0
BBX 10 9 1 26
BITMAP
02F900
0FFF80
2E07D0
3801E0
7400E0
3400E0
2801D0
1E0780
06F900
ENDCHAR
STARTCHAR plusminus
ENCODING 177
SWIDTH 580 0
DWIDTH 21 0
BBX 17 13 2 5
BITMAP
0000A00000
0000E00000
0000E00000
0000E00000
0001E00000
7FEAFAAA80
0000900000
0000900000
0000900000
0000900000
0000000000
BFFEAA9000
FFAAAAA400
ENDCHAR
STARTCHAR twosuperior
ENCODING 178
SWIDTH 365 0
DWIDTH 13 0
BBX 12 19 1 13
BITMAP
006F80
02FFF0
0A0BF8
0802FC
0002FC
0002FC
0002F8
0003F4
0007E0
001F80
007D00
01E000
1E0000
BE0005
1FD018
03FEE0
00BFC0
003F40
001D00
ENDCHAR
STARTCHAR threesuperior
ENCODING 179
SWIDTH 371 0
DWIDTH 13 0
BBX 13 18 0 14
BITMAP
04004000
1FFFC000
1FFF4000
0FFE0000
0D080000
04140000
003E8000
007FF800
0007FE00
1000BF00
20003F40
60003F80
60003F80
30003F40
38007F00
1E02FD00
0BFFF800
01BF9000
ENDCHAR
STARTCHAR acute
ENCODING 180
SWIDTH 234 0
DWIDTH 8 0
BBX 5 7 2 27
BITMAP
0380
0F40
2F00
3D00
B800
E000
8000
ENDCHAR
STARTCHAR mu
ENCODING 181
SWIDTH 634 0
DWIDTH 23 0
BBX 22 31 1 -12
BITMAP
010000000000
7E0000040000
BE0001BD0000
BE0002FD0000
BE0001FE0000
7E0000FE0000
7E0000BE0000
7E0000BE0000
7F00007F0000
7F00007F0240
7F40007F01C0
7F80007F4090
7FC000BF4060
7FD000BF8060
7F70019FC060
3F2D070FE0D0
3F46F807FFC0
3F400001BE40
3F4000000000
3F4000000000
3F8000000000
3F8000000000
3F8000000000
3FC000000000
3FC000000000
2FD000000000
2FD000000000
2FD000000000
2FE000000000
2FE000000000
040000000000
ENDCHAR
STARTCHAR paragraph
ENCODING 182
SWIDTH 707 0
DWIDTH 25 0
BBX 26 43 0 -13
BITMAP
00000000000600
00000000007D00
000000016BE000
00016AFFFF8000
00BFFE407F4000
07FFFE007F0000
1FFFFD007E0000
3FFFFD007E0000
BFFFFD007D0000
BFFFFD007D0000
FFFFFD007D0000
FFFFFD007D0000
FFFFFC007C0000
BFFFFC007C0000
7FFFFC007C0000
2FFFFC007C0000
0BFFFC007C0000
01FFFC007C0000
001BFC00BC0000
0002FC00BC0000
0000FC00BD0000
0000FD00BD0000
0000FD00BD0000
0000BD00BD0000
0000BD00BD0000
0000BD00BD0000
0000BD00BE0000
0000BE00BE0000
00007E00BE0000
00007E00BE0000
00007E00BF0000
00007E00BF0000
00007F00BF4000
00007F00BF8000
00007F00BFC000
00007F00BFF500
00007F00BFAFD0
0000BF00100000
0000BF40000000
0001FF40000000
0007FA00000000
006E4000000000
0B900000000000
ENDCHAR
STARTCHAR periodcentered
ENCODING 183
SWIDTH 238 0
DWIDTH 9 0
BBX 5 6 2 11
BITMAP
6E00
FF80
FF80
FF80
FF40
6E00
ENDCHAR
STARTCHAR cedilla
ENCODING 184
SWIDTH 332 0
DWIDTH 12 0
BBX 8 12 2 -9
BITMAP
0140
0240
0300
0780
07F8
06FD
007F
003F
803F
E0BE
7FFC
1BE0
ENDCHAR
STARTCHAR onesuperior
ENCODING 185
SWIDTH 336 0
DWIDTH 12 0
BBX 11 16 1 16
BITMAP
000200
000700
001F00
007E00
02FE00
193E00
003E00
003E00
003E00
003E00
003E00
007E00
00BF00
56FF00
16BF80
0005A4
ENDCHAR
STARTCHAR ordmasculine
ENCODING 186
SWIDTH 503 0
DWIDTH 18 0
BBX 16 16 1 11
BITMAP
006FE900
02FFFF80
0E41BFF0
2C000BF8
740002FD
B00000FE
B000007F
B000003F
B400002F
B800002F
7C00002E
3E00002D
2F40002C
0BD00074
02F901D0
002BF900
ENDCHAR
STARTCHAR guillemotright
ENCODING 187
SWIDTH 778 0
DWIDTH 28 0
BBX 24 33 2 -10
BITMAP
000020000000
000018000000
00000D000000
80000B000000
C00007800000
A00002E00000
780000B80000
3E00003E0000
1F80001FD000
0BF40007F800
02FE4001FF40
00BFF9002FE0
002FFFE40BFE
0007FFFD0BFF
0000BFE02FFD
0000BF80BFE0
0001FD02FF40
0007F407FC00
000FD01FE000
002F403F8000
007D00BF0000
00F400FC0000
02E002F40000
03C003E00000
0B4007D00000
0E000B800000
1C000F400000
28000F000000
10001E000000
00001D000000
00001C000000
000018000000
000004000000
ENDCHAR
STARTCHAR onequarter
ENCODING 188
SWIDTH 876 0
DWIDTH 32 0
BBX 30 34 1 0
BITMAP
0000000000001000
000000000000A000
000200000001C000
0007000000074000
001F0000000A0000
007E0000002D0000
02FE000000740000
193E000000E00000
003E000002C00000
003E000007400000
003E00001E000000
003E00003C000000
003E0000B4000000
007E0001E0080000
00BF000380280000
56FF000B003C0000
16BF802D00BC0000
0005A47800FC0000
000000F002FC0000
000002D003BD0000
0000074009BD0000
00001E00087D0000
00003C00247E0100
0000B400603E0600
0001E000803E0A00
00038001803F6E00
000B00039AFFFE00
001D0007FFFFFE00
00380005552F8000
00B00000002FC000
02D00000002FE000
07400000002FF900
0A00000002FFFFE0
1C00000006500000
ENDCHAR
STARTCHAR onehalf
ENCODING 189
SWIDTH 762 0
DWIDTH 27 0
BBX 26 35 1 -1
BITMAP
00000000000010
000000000000A0
000200000001C0
00070000000740
001F0000000A00
007E0000002D00
02FE0000007400
193E000000E000
003E000002C000
003E0000074000
003E00001E0000
003E00003C0000
003E0000B40000
007E0001E00000
00BF0003800000
56FF000B000000
16BF802D06F800
0005A4782FFE00
000000F0A0BF80
000002D1803F80
00000740002FC0
00001E00002FC0
00003C00002F80
0000B400003F40
0001E00000BE00
0003800001F800
000B000007D000
001D00001E0000
00380002E00000
00B0000BE00050
02D00001FD0180
074000003FEE00
0A0000000FFC00
1C00000003F400
0000000001D000
ENDCHAR
STARTCHAR threequarters
ENCODING 190
SWIDTH 922 0
DWIDTH 33 0
BBX 33 34 0 0
BITMAP
000000000000004000
000000000000028000
040040000000070000
1FFFC00000000D0000
1FFF40000000280000
0FFE00000000B40000
0D0800000001D00000
041400000003800000
003E8000000B000000
007FF800001D000000
0007FE000078000000
1000BF0000F0000000
20003F4002D0000000
60003F800780500000
60003F800E00D00000
30003F402C01E00000
38007F00B402E00000
1E02FD01E007E00000
0BFFF803C00FE00000
01BF900B401BF00000
0000001D0023F00000
000000780052F00000
000000B00082F41000
000002D00241F42400
000007800201F43400
00000E000901F9F400
00002C001DABFFF400
000074002FFFFFF400
0000E0001554FD0000
0002C0000000FE0000
000B40000000FF4000
001D00000001FFD000
00280000001BFFFF40
007000000019400000
ENDCHAR
STARTCHAR questiondown
ENCODING 191
SWIDTH 571 0
DWIDTH 21 0
BBX 19 32 1 -4
BITMAP
00007E0000
0001FF8000
0002FFC000
0002FFC000
0002FF8000
0000BE0000
0000000000
0000900000
0000280000
00000C0000
00000D0000
00000C0000
0000280000
0000B40000
0002E00000
001FC00000
007F400000
02FE01BE40
0BFC03FFD0
1FF80BFFF4
3FF40BFFF8
BFF007FFFC
FFE002FFFC
FFE0006FF8
FFE00007F8
FFE00002F4
FFF00001F0
BFF40001E0
3FF80002C0
1FFD000740
02FF901900
001BFF9000
ENDCHAR
STARTCHAR Agrave
ENCODING 192
SWIDTH 784 0
DWIDTH 28 0
BBX 29 40 0 -3
BITMAP
001E000000000000
001F800000000000
000BE00000000000
0002F40000000000
0000BC0000000000
00002E0000000000
0000060000000000
0000000000000000
0000001900000000
000000BE00000000
00005BFF00000000
000BEBFF40000000
000003FF80000000
000003BFC0000000
0000076FD0000000
0000071FE0000000
00000A0FF0000000
00000D0BF4000000
00001C07F8000000
00002803FC000000
00003402FE000000
00007001FF000000
0000A001FF400000
0000EE50FF800000
0001C1BEFFC00000
00028006FFD00000
000340007FE00000
000B00002FF00000
000E00001FF40000
001D00000FF80000
002C00000BFC0000
0078000007FD0000
01F8000003FE0000
FFF8000002FF0000
05BE400002FF4000
0006C00001FFC000
0000000000FFE000
0000000000FFF900
0000000007FFFF80
00000000BA500000
ENDCHAR
STARTCHAR Aacute
ENCODING 193
SWIDTH 784 0
DWIDTH 28 0
BBX 29 41 0 -3
BITMAP
0000000700000000
0000001F00000000
0000003E00000000
0000007C00000000
000000F400000000
000001D000000000
0000024000000000
0000000000000000
0000000000000000
0000001900000000
000000BE00000000
00005BFF00000000
000BEBFF40000000
000003FF80000000
000003BFC0000000
0000076FD0000000
0000071FE0000000
00000A0FF0000000
00000D0BF4000000
00001C07F8000000
00002803FC000000
00003402FE000000
00007001FF000000
0000A001FF400000
0000EE50FF800000
0001C1BEFFC00000
00028006FFD00000
000340007FE00000
000B00002FF00000
000E00001FF40000
001D00000FF80000
002C00000BFC0000
0078000007FD0000
01F8000003FE0000
FFF8000002FF0000
05BE400002FF4000
0006C00001FFC000
0000000000FFE000
0000000000FFF900
0000000007FFFF80
00000000BA500000
ENDCHAR
STARTCHAR Acircumflex
ENCODING 194
SWIDTH 784 0
DWIDTH 28 0
BBX 29 40 0 -3
BITMAP
0000002400000000
000000BC00000000
000001FE00000000
0000079F80000000
00000E03F0000000
00003800BD000000
000090001B400000
0002400000000000
0000001900000000
000000BE00000000
00005BFF00000000
000BEBFF40000000
000003FF80000000
000003BFC0000000
0000076FD0000000
0000071FE0000000
00000A0FF0000000
00000D0BF4000000
00001C07F8000000
00002803FC000000
00003402FE000000
00007001FF000000
0000A001FF400000
0000EE50FF800000
0001C1BEFFC00000
00028006FFD00000
000340007FE00000
000B00002FF00000
000E00001FF40000
001D00000FF80000
002C00000BFC0000
0078000007FD0000
01F8000003FE0000
FFF8000002FF0000
05BE400002FF4000
0006C00001FFC000
0000000000FFE000
0000000000FFF900
0000000007FFFF80
00000000BA500000
ENDCHAR
STARTCHAR Atilde
ENCODING 195
SWIDTH 784 0
DWIDTH 28 0
BBX 29 40 0 -3
BITMAP
00007E0000000000
0001FFD000000000
00024BF918000000
000202FFF8000000
000100BFF4000000
0000001BD0000000
0000000000000000
0000000000000000
0000001900000000
000000BE00000000
00005BFF00000000
000BEBFF40000000
000003FF80000000
000003BFC0000000
0000076FD0000000
0000071FE0000000
00000A0FF0000000
00000D0BF4000000
00001C07F8000000
00002803FC000000
00003402FE000000
00007001FF000000
0000A001FF400000
0000EE50FF800000
0001C1BEFFC00000
00028006FFD00000
000340007FE00000
000B00002FF00000
000E00001FF40000
001D00000FF80000
002C00000BFC0000
0078000007FD0000
01F8000003FE0000
FFF8000002FF0000
05BE400002FF4000
0006C00001FFC000
0000000000FFE000
0000000000FFF900
0000000007FFFF80
00000000BA500000
ENDCHAR
STARTCHAR Adieresis
ENCODING 196
SWIDTH 784 0
DWIDTH 28 0
BBX 29 39 0 -3
BITMAP
00002E4000000000
0000BF82E0000000
0000FFC3F8000000
0000BF87F8000000
00002E02E0000000
0000000000000000
0000000000000000
0000001900000000
000000BE00000000
00005BFF00000000
000BEBFF40000000
000003FF80000000
000003BFC0000000
0000076FD0000000
0000071FE0000000
00000A0FF0000000
00000D0BF4000000
00001C07F8000000
00002803FC000000
00003402FE000000
00007001FF000000
0000A001FF400000
0000EE50FF800000
0001C1BEFFC00000
00028006FFD00000
000340007FE00000
000B00002FF00000
000E00001FF40000
001D00000FF80000
002C00000BFC0000
0078000007FD0000
01F8000003FE0000
FFF8000002FF0000
05BE400002FF4000
0006C00001FFC000
0000000000FFE000
0000000000FFF900
0000000007FFFF80
00000000BA500000
ENDCHAR
STARTCHAR Aring
ENCODING 197
SWIDTH 784 0
DWIDTH 28 0
BBX 29 42 0 -3
BITMAP
000001FE00000000
00000B4680000000
00001D00D0000000
00002C00A0000000
00002C00A0000000
00002D00E0000000
00001F42C0000000
00000BFF80000000
000002FD00000000
0000000000000000
0000001900000000
000000BE00000000
00005BFF00000000
000BEBFF40000000
000003FF80000000
000003BFC0000000
0000076FD0000000
0000071FE0000000
00000A0FF0000000
00000D0BF4000000
00001C07F8000000
00002803FC000000
00003402FE000000
00007001FF000000
0000A001FF400000
0000EE50FF800000
0001C1BEFFC00000
00028006FFD00000
000340007FE00000
000B00002FF00000
000E00001FF40000
001D00000FF80000
002C00000BFC0000
0078000007FD0000
01F8000003FE0000
FFF8000002FF0000
05BE400002FF4000
0006C00001FFC000
0000000000FFE000
0000000000FFF900
0000000007FFFF80
00000000BA500000
ENDCHAR
STARTCHAR AE
ENCODING 198
SWIDTH 1172 0
DWIDTH 42 0
BBX 42 36 0 -6
BITMAP
00000000000000006E0000
000000000000001BFE0000
00000000000016FABD0000
00000000056AF9401D0000
0000000FFFFFE0000D0000
000000005BFFD0000C0000
0000000002DFD000080000
00000000029FE000080000
00000000031FE000040000
00000000060FE000000000
00000000090FF000000000
000000000C0FF000200000
00000000180FF400600000
00000000200BF400A00000
00000000600BF801E00000
00000000900BF81BE00000
00000000800BFFFBE00000
00000002400BFD00A00000
00000003000BFD00700080
00000006001FFD003000C0
0000000FFFFFFD002401C0
0000001E4007FE000001C0
000000240003FE000002D0
000000700003FF000003D0
000000900003FF40000BE0
000001C00003FF80001FE0
000002400002FF8000BFF0
000007000002FFC01BFFA0
00000A000002FFEAFE5000
00001C000003FFFE500000
000038000003FFD0000000
0000B4000007F900000000
0002F000000F9000000000
000BF00000790000000000
01BFF40002900000000000
BFAAABC000000000000000
ENDCHAR
STARTCHAR Ccedilla
ENCODING 199
SWIDTH 742 0
DWIDTH 27 0
BBX 27 45 0 -15
BITMAP
00000000000200
00000000000600
00000000000600
00000000000A00
00000000000E00
00001AFFE9BE00
0002FE405BFE00
001FE00001FF00
00BF4000002F00
02FE0000000F40
07FC0000000780
0FF800000001C0
1FF40000000090
2FF00000000000
3FE00000000000
7FE00000000000
BFE00000000000
BFE00000000000
BFE00000000000
BFE00000000000
BFE00000000014
BFF00000000024
BFF00000000024
7FF40000000024
7FF80000000030
3FFC0000000060
1FFD00000000A0
0FFF00000001C0
07FF8000000280
01FFE000000B00
007FFD00002D00
001FFF9006F400
0001FFFFFF8000
00001AFFE40000
00000005000000
00000009000000
0000000D000000
0000001FE00000
0000001BF80000
00000001FC0000
00000000FD0000
00000200FC0000
00000281FC0000
000001FFF40000
0000006F900000
ENDCHAR
STARTCHAR Egrave
ENCODING 200
SWIDTH 557 0
DWIDTH 20 0
BBX 20 42 0 -4
BITMAP
02D0000000
03F4000000
01FD000000
007E000000
001F800000
0007C00000
0000900000
0000000000
0000000000
00000016B0
7A96AFFFF0
1FFF9500B0
07FF000070
03FF000030
02FF000020
01FF400000
01FF400000
00FF400000
00FF400000
00FF400000
00BF401000
00BF402000
007F80A000
007FFFD000
007FFFD000
007F86D000
003F809000
003F809000
003F809000
002FC04000
002FC00000
002FC00000
002FC00000
001FC00000
001FD00000
001FD00002
001FD00003
001FD00007
000FE0000F
002FE0007E
3FFFFEAFFD
000055ABF8
ENDCHAR
STARTCHAR Eacute
ENCODING 201
SWIDTH 557 0
DWIDTH 20 0
BBX 20 42 0 -4
BITMAP
0000007000
000001F000
000003E000
000007C000
00000F4000
00001D0000
0000240000
0000000000
0000000000
00000016B0
7A96AFFFF0
1FFF9500B0
07FF000070
03FF000030
02FF000020
01FF400000
01FF400000
00FF400000
00FF400000
00FF400000
00BF401000
00BF402000
007F80A000
007FFFD000
007FFFD000
007F86D000
003F809000
003F809000
003F809000
002FC04000
002FC00000
002FC00000
002FC00000
001FC00000
001FD00000
001FD00002
001FD00003
001FD00007
000FE0000F
002FE0007E
3FFFFEAFFD
000055ABF8
ENDCHAR
STARTCHAR Ecircumflex
ENCODING 202
SWIDTH 557 0
DWIDTH 20 0
BBX 20 42 0 -4
BITMAP
0000180000
00007D0000
0000FF4000
0002DBD000
000741F400
001D007E00
00600006C0
0180000000
0000000000
00000016B0
7A96AFFFF0
1FFF9500B0
07FF000070
03FF000030
02FF000020
01FF400000
01FF400000
00FF400000
00FF400000
00FF400000
00BF401000
00BF402000
007F80A000
007FFFD000
007FFFD000
007F86D000
003F809000
003F809000
003F809000
002FC04000
002FC00000
002FC00000
002FC00000
001FC00000
001FD00000
001FD00002
001FD00003
001FD00007
000FE0000F
002FE0007E
3FFFFEAFFD
000055ABF8
ENDCHAR
STARTCHAR Edieresis
ENCODING 203
SWIDTH 557 0
DWIDTH 20 0
BBX 20 39 0 -4
BITMAP
001F400000
007FC1F400
007FD2FC00
007FC2FC00
002F41F400
0000000000
00000016B0
7A96AFFFF0
1FFF9500B0
07FF000070
03FF000030
02FF000020
01FF400000
01FF400000
00FF400000
00FF400000
00FF400000
00BF401000
00BF402000
007F80A000
007FFFD000
007FFFD000
007F86D000
003F809000
003F809000
003F809000
002FC04000
002FC00000
002FC00000
002FC00000
001FC00000
001FD00000
001FD00002
001FD00003
001FD00007
000FE0000F
002FE0007E
3FFFFEAFFD
000055ABF8
ENDCHAR
STARTCHAR Igrave
ENCODING 204
SWIDTH 438 0
DWIDTH 16 0
BBX 20 46 -2 -7
BITMAP
002D000000
002F400000
001FD00000
0007F00000
0001F80000
00007D0000
0000090000
0000000000
1A55556AFE
05BFFFF900
000FFFD000
0007FF8000
0003FF4000
0003FF0000
0003FF0000
0003FE0000
0003FE0000
0003FD0000
0003FD0000
0003FD0000
0003FC0000
0003FC0000
0003FC0000
0003F80000
0003F80000
0003F80000
0003F80000
0003F40000
0003F40000
0003F40000
0003F40000
0003F40000
0003F00000
0003F00000
0003F00000
0003F00000
0003F00000
0003F00000
0003F00000
0003F00000
0007F00000
000BF90000
002FFFF400
02F9400000
6E40000000
5000000000
ENDCHAR
STARTCHAR Iacute
ENCODING 205
SWIDTH 438 0
DWIDTH 16 0
BBX 20 46 -2 -7
BITMAP
0000000A00
0000002E00
0000007C00
000000F400
000001E000
000002C000
0000020000
0000000000
1A55556AFE
05BFFFF900
000FFFD000
0007FF8000
0003FF4000
0003FF0000
0003FF0000
0003FE0000
0003FE0000
0003FD0000
0003FD0000
0003FD0000
0003FC0000
0003FC0000
0003FC0000
0003F80000
0003F80000
0003F80000
0003F80000
0003F40000
0003F40000
0003F40000
0003F40000
0003F40000
0003F00000
0003F00000
0003F00000
0003F00000
0003F00000
0003F00000
0003F00000
0003F00000
0007F00000
000BF90000
002FFFF400
02F9400000
6E40000000
5000000000
ENDCHAR
STARTCHAR Icircumflex
ENCODING 206
SWIDTH 438 0
DWIDTH 16 0
BBX 20 46 -2 -7
BITMAP
0000090000
00001F4000
00003FD000
0000B6F400
0002C0BD00
000A001F80
00280001E0
0050000000
1A55556AFE
05BFFFF900
000FFFD000
0007FF8000
0003FF4000
0003FF0000
0003FF0000
0003FE0000
0003FE0000
0003FD0000
0003FD0000
0003FD0000
0003FC0000
0003FC0000
0003FC0000
0003F80000
0003F80000
0003F80000
0003F80000
0003F40000
0003F40000
0003F40000
0003F40000
0003F40000
0003F00000
0003F00000
0003F00000
0003F00000
0003F00000
0003F00000
0003F00000
0003F00000
0007F00000
000BF90000
002FFFF400
02F9400000
6E40000000
5000000000
ENDCHAR
STARTCHAR Idieresis
ENCODING 207
SWIDTH 438 0
DWIDTH 16 0
BBX 20 44 -2 -7
BITMAP
000B800000
002FE0B800
003FE1FE00
002FE1FD00
001B80B800
0000000000
1A55556AFE
05BFFFF900
000FFFD000
0007FF8000
0003FF4000
0003FF0000
0003FF0000
0003FE0000
0003FE0000
0003FD0000
0003FD0000
0003FD0000
0003FC0000
0003FC0000
0003FC0000
0003F80000
0003F80000
0003F80000
0003F80000
0003F40000
0003F40000
0003F40000
0003F40000
0003F40000
0003F00000
0003F00000
0003F00000
0003F00000
0003F00000
0003F00000
0003F00000
0003F00000
0007F00000
000BF90000
002FFFF400
02F9400000
6E40000000
5000000000
ENDCHAR
STARTCHAR Eth
ENCODING 208
SWIDTH 730 0
DWIDTH 26 0
BBX 27 29 0 -8
BITMAP
05556AFFA40000
1AFFF417FF9000
002FE0007FF800
001FE0001FFE00
001FE0000BFF80
001FE00003FFD0
001FE00002FFE0
001FE00001FFF0
001FE00000FFF4
001FE00000BFF8
001FE00000BFF8
001FE14000BFF8
001FFE8000BFF8
2AFFE00000BFF8
255FE00000FFF4
001FE00000FFF0
001FE00001FFE0
001FE00002FFD0
001FE00003FF80
002FF0000BFE00
002FF0002FF800
002FF400BFD000
003FF81BFE0000
007FFFFF900000
00BFFFA4000000
02FE5000000000
0B900000000000
29000000000000
90000000000000
ENDCHAR
STARTCHAR Ntilde
ENCODING 209
SWIDTH 799 0
DWIDTH 29 0
BBX 29 43 0 -8
BITMAP
0000002E40000000
000000BFE0000000
00000087FD090000
00000141FFFD0000
000001003FF80000
000000000BE00000
0000000000000000
0000000000000000
0000000000000000
0005000000000000
BFFFD00000001680
01FFF4000FFFF900
007FFD00006FC000
003FFF40000F4000
003AFFD0000B4000
0038BFF000070000
00282FFC00070000
00280FFE00070000
002807FF80070000
002802FFE0070000
002800FFF8060000
0028007FFD0A0000
0028001FFF4A0000
0028000BFFEE0000
00280003FFFE0000
00280001FFFE0000
002800007FFE0000
002800002FFE0000
002800000FFE0000
0028000003FE0000
0028000001FE0000
00280000007D0000
00280000002D0000
0028000000090000
0028000000000000
0028000000000000
0028000000000000
003C000000000000
003C000000000000
00BD000000000000
06FF000000000000
7FFFD00000000000
0001BD0000000000
ENDCHAR
STARTCHAR Ograve
ENCODING 210
SWIDTH 747 0
DWIDTH 27 0
BBX 27 37 0 1
BITMAP
00078000000000
000BE000000000
0003F400000000
0000FC00000000
00003E00000000
00000B40000000
00000280000000
00000000000000
00000000000000
00000000000000
00006BFE900000
0007E406FD0000
002F40007FD000
00FC00001FF400
03F4000007FD00
0BF0000002FF40
1FD0000001FFC0
2FD0000000BFD0
3FC00000007FE0
7F800000007FF0
BF800000003FF4
BF800000002FF8
BF800000002FF8
BF800000002FF8
BF800000002FF8
BFC00000002FF8
BFC00000001FF4
7FD00000002FF0
3FE00000002FF0
2FF00000003FD0
1FF40000003FC0
0BF80000007F40
03FD000000FE00
00FF400002F800
002FD0000BE000
0007F9017E4000
00006BFF940000
ENDCHAR
STARTCHAR Oacute
ENCODING 211
SWIDTH 747 0
DWIDTH 27 0
BBX 27 36 0 1
BITMAP
00000007000000
0000001F000000
0000003E000000
0000007C000000
000000F4000000
000001D0000000
00000240000000
00000000000000
00000000000000
00006BFE900000
0007E406FD0000
002F40007FD000
00FC00001FF400
03F4000007FD00
0BF0000002FF40
1FD0000001FFC0
2FD0000000BFD0
3FC00000007FE0
7F800000007FF0
BF800000003FF4
BF800000002FF8
BF800000002FF8
BF800000002FF8
BF800000002FF8
BFC00000002FF8
BFC00000001FF4
7FD00000002FF0
3FE00000002FF0
2FF00000003FD0
1FF40000003FC0
0BF80000007F40
03FD000000FE00
00FF400002F800
002FD0000BE000
0007F9017E4000
00006BFF940000
ENDCHAR
STARTCHAR Ocircumflex
ENCODING 212
SWIDTH 747 0
DWIDTH 27 0
BBX 27 36 0 1
BITMAP
00000180000000
000002E0000000
00000BF8000000
00001D7E000000
0000741F800000
0000D002F40000
000340006D0000
00080000000000
00000000000000
00006BFE900000
0007E406FD0000
002F40007FD000
00FC00001FF400
03F4000007FD00
0BF0000002FF40
1FD0000001FFC0
2FD0000000BFD0
3FC00000007FE0
7F800000007FF0
BF800000003FF4
BF800000002FF8
BF800000002FF8
BF800000002FF8
BF800000002FF8
BFC00000002FF8
BFC00000001FF4
7FD00000002FF0
3FE00000002FF0
2FF00000003FD0
1FF40000003FC0
0BF80000007F40
03FD000000FE00
00FF400002F800
002FD0000BE000
0007F9017E4000
00006BFF940000
ENDCHAR
STARTCHAR Otilde
ENCODING 213
SWIDTH 747 0
DWIDTH 27 0
BBX 27 35 0 1
BITMAP
00002F40000000
0000BFE0000000
000087FD090000
000141FFFD0000
0001003FFC0000
0000000BE00000
00000000000000
00000000000000
00006BFE900000
0007E406FD0000
002F40007FD000
00FC00001FF400
03F4000007FD00
0BF0000002FF40
1FD0000001FFC0
2FD0000000BFD0
3FC00000007FE0
7F800000007FF0
BF800000003FF4
BF800000002FF8
BF800000002FF8
BF800000002FF8
BF800000002FF8
BFC00000002FF8
BFC00000001FF4
7FD00000002FF0
3FE00000002FF0
2FF00000003FD0
1FF40000003FC0
0BF80000007F40
03FD000000FE00
00FF400002F800
002FD0000BE000
0007F9017E4000
00006BFF940000
ENDCHAR
STARTCHAR Odieresis
ENCODING 214
SWIDTH 747 0
DWIDTH 27 0
BBX 27 35 0 1
BITMAP
00006E00000000
0000FF42E00000
0000FF87F40000
0000FF47F40000
00007E02E00000
00000000000000
00000000000000
00000000000000
00006BFE900000
0007E406FD0000
002F40007FD000
00FC00001FF400
03F4000007FD00
0BF0000002FF40
1FD0000001FFC0
2FD0000000BFD0
3FC00000007FE0
7F800000007FF0
BF800000003FF4
BF800000002FF8
BF800000002FF8
BF800000002FF8
BF800000002FF8
BFC00000002FF8
BFC00000001FF4
7FD00000002FF0
3FE00000002FF0
2FF00000003FD0
1FF40000003FC0
0BF80000007F40
03FD000000FE00
00FF400002F800
002FD0000BE000
0007F9017E4000
00006BFF940000
ENDCHAR
STARTCHAR multiply
ENCODING 215
SWIDTH 541 0
DWIDTH 19 0
BBX 16 21 2 0
BITMAP
0000000A
0000002C
000000B4
000001D0
14000380
0E000A00
07802C00
01F47400
007ED000
001FC000
000FE000
002D7D00
00740B40
00E001E0
02C00010
0B400000
1E000000
3C000000
B4000000
E0000000
40000000
ENDCHAR
STARTCHAR Oslash
ENCODING 216
SWIDTH 747 0
DWIDTH 27 0
BBX 27 34 0 -2
BITMAP
00000000000060
000000000000D0
00000000000280
00000000000700
00006BFE901D00
0007E406FE3800
002F40007FF000
00FC00001FF800
03F4000007FD00
0BF000000BFF40
1FE000001EFFC0
2FD0000078FFD0
3FC00000F0BFF0
7F800002D07FF0
BF800007803FF4
BF80000E003FF8
BF80002C002FF8
BF8000B4002FF8
BF8001E0002FF8
BFC003C0001FF8
BFC00B40001FF4
7FD01D00002FF0
3FE03800002FF0
2FF0B000003FD0
1FF5D000003FC0
0BFB8000007F40
03FF000000FE00
00FF400002F800
007FD0000BE000
00E7F9017E4000
02C06BFF940000
07400000000000
0E000000000000
08000000000000
ENDCHAR
STARTCHAR Ugrave
ENCODING 217
SWIDTH 690 0
DWIDTH 25 0
BBX 27 37 0 2
BITMAP
00000E00000000
00001FC0000000
00000BE0000000
000002F4000000
000000BC000000
0000002E000000
00000007000000
00000000000000
00000000000000
00000019000000
000001B8000000
00016F80000000
05AFFE00000000
BFFFFC00000000
07FFF400000000
01FFF40BEAAA54
00FFF0006FFC00
00BFE00002F400
00BFE00000F400
00BFE00000F000
007FE00000B000
007FD00000B000
007FD000007000
007FE000007000
007FE000007000
007FE000007000
003FE000006000
003FF000006000
002FF000006000
002FF400009000
001FF80000C000
000FFC00018000
0007FD00034000
0002FF000B0000
0000BFD06D0000
00002FFFF40000
000006FF800000
ENDCHAR
STARTCHAR Uacute
ENCODING 218
SWIDTH 690 0
DWIDTH 25 0
BBX 27 32 0 2
BITMAP
00000000002C00
00000000007C00
0000000000F400
0000000002E000
0000001903C000
000001B8074000
00016F80090000
05AFFE00000000
BFFFFC00000000
07FFF400000000
01FFF40BEAAA54
00FFF0006FFC00
00BFE00002F400
00BFE00000F400
00BFE00000F000
007FE00000B000
007FD00000B000
007FD000007000
007FE000007000
007FE000007000
007FE000007000
003FE000006000
003FF000006000
002FF000006000
002FF400009000
001FF80000C000
000FFC00018000
0007FD00034000
0002FF000B0000
0000BFD06D0000
00002FFFF40000
000006FF800000
ENDCHAR
STARTCHAR Ucircumflex
ENCODING 219
SWIDTH 690 0
DWIDTH 25 0
BBX 27 34 0 2
BITMAP
00000006000000
0000001F400000
0000003FD00000
000000B6F40000
000002D0BD0000
000007001F8000
0000181901B000
000061B8000000
00016F80000000
05AFFE00000000
BFFFFC00000000
07FFF400000000
01FFF40BEAAA54
00FFF0006FFC00
00BFE00002F400
00BFE00000F400
00BFE00000F000
007FE00000B000
007FD00000B000
007FD000007000
007FE000007000
007FE000007000
007FE000007000
003FE000006000
003FF000006000
002FF000006000
002FF400009000
001FF80000C000
000FFC00018000
0007FD00034000
0002FF000B0000
0000BFD06D0000
00002FFFF40000
000006FF800000
ENDCHAR
STARTCHAR Udieresis
ENCODING 220
SWIDTH 690 0
DWIDTH 25 0
BBX 27 34 0 2
BITMAP
000007E0000000
00000FF42E0000
00000FF87F4000
00000FF4BF4000
000007E02E0000
00000000000000
00000019000000
000001B8000000
00016F80000000
05AFFE00000000
BFFFFC00000000
07FFF400000000
01FFF40BEAAA54
00FFF0006FFC00
00BFE00002F400
00BFE00000F400
00BFE00000F000
007FE00000B000
007FD00000B000
007FD000007000
007FE000007000
007FE000007000
007FE000007000
003FE000006000
003FF000006000
002FF000006000
002FF400009000
001FF80000C000
000FFC00018000
0007FD00034000
0002FF000B0000
0000BFD06D0000
00002FFFF40000
000006FF800000
ENDCHAR
STARTCHAR Yacute
ENCODING 221
SWIDTH 796 0
DWIDTH 29 0
BBX 32 43 0 -5
BITMAP
00000000002C0000
0000000000B80000
0000000000F40000
0000000002E00000
0000000003C00000
0000000007400000
0000000009000000
0000068000000000
0016B90000040000
7FFFE000000BA500
06FFD0000000FFFE
007FF0000000B800
001FF8000001D000
0007FD0000024000
0002FF4000060000
0000BFC0001C0000
00003FF000340000
00001FF800900000
000007FE02800000
000002FFDB000000
000000FFFD000000
0000007FF8000000
0000002FF4000000
0000001FF0000000
0000000FF0000000
0000000BF0000000
0000000BF0000000
0000000BF0000000
0000000BF0000000
0000000BF0000000
0000000BF4000000
0000000BF4000000
0000000BF4000000
0000000BF4000000
0000000FF4000000
0000000FF4000000
0000000FF8000000
0000001FF8000000
0000002FF8000000
000001BFFC000000
00007FFFFE000000
000000016B900000
0000000000500000
ENDCHAR
STARTCHAR Thorn
ENCODING 222
SWIDTH 479 0
DWIDTH 17 0
BBX 17 36 1 -3
BITMAP
BFFFF00000
1BFE000000
03FC000000
02F8000000
02F4000000
02F4000000
02F9000000
02FFFE4000
02FD0BF800
02F402FE00
02F001FF40
02F000FF80
02F000BFC0
02F000BFC0
02F000BFC0
02F000BF80
02F000FF40
02F002FE00
02F40BF800
03FAFF9000
03F4000000
03F4000000
03F4000000
03F4000000
03F4000000
03F4000000
03F4000000
07F4000000
07F4000000
07F4000000
07F4000000
07F4000000
0BF8000000
2FFD000000
BFFF900000
5001500000
ENDCHAR
STARTCHAR germandbls
ENCODING 223
SWIDTH 591 0
DWIDTH 21 0
BBX 22 39 -1 -4
BITMAP
006FE4000000
02907D000000
07001F400000
0E000FC00000
1D000BD00000
2D0007D00000
2D0007E00000
2D0007E00000
2D000BD00000
2D000BC00000
2E000F800000
2E002F000000
2F003C000000
2F00E0000000
1F4280000000
1F5FFFA40000
0F805BFF4000
0FC001BFE000
0FD0002FF800
0BD0000BFE00
0BE00002FF40
07F00000FF80
07F40000BFC0
03F400003FD0
02F800002FE0
02FC00001FE0
01FD00000FE0
01FE00000BE0
00FF00000BE0
00FF400007E0
00BF800007D0
00BFC2E00BC0
00BFD7F40B40
00BFD7FD1E00
01FFE3FFF800
07E500BF9000
1E4000000000
740000000000
400000000000
ENDCHAR
STARTCHAR agrave
ENCODING 224
SWIDTH 527 0
DWIDTH 19 0
BBX 21 35 0 -4
BITMAP
2D0000000000
2F4000000000
1FD000000000
07F000000000
01F800000000
007C00000000
000900000000
000000000000
000000000000
002FE4000000
00D07E000000
02801F800000
07400FD00000
0B400BE00000
0BD00BF00000
0BF807F40000
07FD07F40000
03FD07F80000
01B803F80000
000003FC0000
000003FC0000
006FFBFD0000
07E406FD0000
1F8002FE0000
2F4001FE0000
7F0001FF0000
7F0001FF0000
7F4002FF4000
7FD02FFF4100
3FFFFCBF8200
1FFFE07FC240
02FE403FD300
0000002FFF00
0000001FFE00
00000006F800
ENDCHAR
STARTCHAR aacute
ENCODING 225
SWIDTH 527 0
DWIDTH 19 0
BBX 21 35 0 -4
BITMAP
000002800000
00000B800000
00001F000000
00003E000000
000078000000
0000B0000000
000090000000
000000000000
000000000000
002FE4000000
00D07E000000
02801F800000
07400FD00000
0B400BE00000
0BD00BF00000
0BF807F40000
07FD07F40000
03FD07F80000
01B803F80000
000003FC0000
000003FC0000
006FFBFD0000
07E406FD0000
1F8002FE0000
2F4001FE0000
7F0001FF0000
7F0001FF0000
7F4002FF4000
7FD02FFF4100
3FFFFCBF8200
1FFFE07FC240
02FE403FD300
0000002FFF00
0000001FFE00
00000006F800
ENDCHAR
STARTCHAR acircumflex
ENCODING 226
SWIDTH 527 0
DWIDTH 19 0
BBX 21 34 0 -4
BITMAP
000090000000
0002F0000000
0007F8000000
001E7E000000
00380FC00000
00A002F40000
0240006D0000
090000000000
002FE4000000
00D07E000000
02801F800000
07400FD00000
0B400BE00000
0BD00BF00000
0BF807F40000
07FD07F40000
03FD07F80000
01B803F80000
000003FC0000
000003FC0000
006FFBFD0000
07E406FD0000
1F8002FE0000
2F4001FE0000
7F0001FF0000
7F0001FF0000
7F4002FF4000
7FD02FFF4100
3FFFFCBF8200
1FFFE07FC240
02FE403FD300
0000002FFF00
0000001FFE00
00000006F800
ENDCHAR
STARTCHAR atilde
ENCODING 227
SWIDTH 527 0
DWIDTH 19 0
BBX 21 33 0 -4
BITMAP
002F40000000
00BFE0000000
00C7FE090000
0140FFFD0000
01002FFC0000
000007E00000
000000000000
002FE4000000
00D07E000000
02801F800000
07400FD00000
0B400BE00000
0BD00BF00000
0BF807F40000
07FD07F40000
03FD07F80000
01B803F80000
000003FC0000
000003FC0000
006FFBFD0000
07E406FD0000
1F8002FE0000
2F4001FE0000
7F0001FF0000
7F0001FF0000
7F4002FF4000
7FD02FFF4100
3FFFFCBF8200
1FFFE07FC240
02FE403FD300
0000002FFF00
0000001FFE00
00000006F800
ENDCHAR
STARTCHAR adieresis
ENCODING 228
SWIDTH 527 0
DWIDTH 19 0
BBX 21 31 0 -4
BITMAP
00B82D000000
01FD7E000000
01FDBE000000
00B83D000000
000000000000
002FE4000000
00D07E000000
02801F800000
07400FD00000
0B400BE00000
0BD00BF00000
0BF807F40000
07FD07F40000
03FD07F80000
01B803F80000
000003FC0000
000003FC0000
006FFBFD0000
07E406FD0000
1F8002FE0000
2F4001FE0000
7F0001FF0000
7F0001FF0000
7F4002FF4000
7FD02FFF4100
3FFFFCBF8200
1FFFE07FC240
02FE403FD300
0000002FFF00
0000001FFE00
00000006F800
ENDCHAR
STARTCHAR aring
ENCODING 229
SWIDTH 527 0
DWIDTH 19 0
BBX 21 37 0 -4
BITMAP
0006F8000000
001D0B000000
003802800000
007402800000
007402C00000
007402800000
003D0B400000
002FFE000000
0006F8000000
000000000000
000000000000
002FE4000000
00D07E000000
02801F800000
07400FD00000
0B400BE00000
0BD00BF00000
0BF807F40000
07FD07F40000
03FD07F80000
01B803F80000
000003FC0000
000003FC0000
006FFBFD0000
07E406FD0000
1F8002FE0000
2F4001FE0000
7F0001FF0000
7F0001FF0000
7F4002FF4000
7FD02FFF4100
3FFFFCBF8200
1FFFE07FC240
02FE403FD300
0000002FFF00
0000001FFE00
00000006F800
ENDCHAR
STARTCHAR ae
ENCODING 230
SWIDTH 700 0
DWIDTH 25 0
BBX 25 24 0 -3
BITMAP
00000000BF9000
00000007FFF400
0000001D07FC00
01BD007001FD00
074780D000BE00
0E01D28000BE00
1E00F34000BE00
2F40BB0000FD00
2FC0BE0001FC00
1FC0BE0002F400
0B80BE000BE000
001BFE01BF4000
00B4BFFFE40000
03C07E00000200
0F403F00000240
2E003F40000280
3E003FC0000280
7D003FE0000380
7D007FF8000B40
7E00ABFF906F00
7F42D7FFFFFE00
3FFF82FFFFFC00
1FFF407FFFF000
06F8001BFE4000
ENDCHAR
STARTCHAR ccedilla
ENCODING 231
SWIDTH 437 0
DWIDTH 16 0
BBX 15 31 0 -9
BITMAP
0006FE40
00647FD0
01C03FF0
07402FF4
0B002FF4
1E001FF0
2E000BD0
3D000000
7D000000
7E000060
7E000024
7F00001C
7F00001C
3F80001C
3FC0001C
1FF0003C
0FFD01F4
07FFFFE0
01FFFF80
001BF900
00008000
00018000
0002E400
0003FE00
0000BF40
00002F80
00001F80
00501F80
00342F40
002FFE00
0007F800
ENDCHAR
STARTCHAR egrave
ENCODING 232
SWIDTH 434 0
DWIDTH 16 0
BBX 15 29 0 1
BITMAP
07800000
0BE00000
03F40000
01FC0000
003E0000
000B4000
00028000
00000000
00000000
0006FE40
007E07E0
01F802F4
07F001F8
0FE000FC
1FD000FC
2FC001FC
3FC001F8
7F8003F4
7F800BE0
7F906F80
7FEFE824
7FC00018
3FC0001C
2FD0001C
1FF0001C
0BF80038
07FE41B4
00BFFFD0
001BFE00
ENDCHAR
STARTCHAR eacute
ENCODING 233
SWIDTH 434 0
DWIDTH 16 0
BBX 15 28 0 1
BITMAP
00000380
00000F40
00002F00
00003D00
00007800
0000E000
00008000
00000000
0006FE40
007E07E0
01F802F4
07F001F8
0FE000FC
1FD000FC
2FC001FC
3FC001F8
7F8003F4
7F800BE0
7F906F80
7FEFE824
7FC00018
3FC0001C
2FD0001C
1FF0001C
0BF80038
07FE41B4
00BFFFD0
001BFE00
ENDCHAR
STARTCHAR ecircumflex
ENCODING 234
SWIDTH 434 0
DWIDTH 16 0
BBX 16 30 0 1
BITMAP
00018000
0003E000
000BF800
001D7E00
00741F80
01D002F4
0740006D
08000000
00000000
00000000
0006FE40
007E07E0
01F802F4
07F001F8
0FE000FC
1FD000FC
2FC001FC
3FC001F8
7F8003F4
7F800BE0
7F906F80
7FEFE824
7FC00018
3FC0001C
2FD0001C
1FF0001C
0BF80038
07FE41B4
00BFFFD0
001BFE00
ENDCHAR
STARTCHAR edieresis
ENCODING 235
SWIDTH 434 0
DWIDTH 16 0
BBX 15 26 0 1
BITMAP
002E0B40
007F5F80
007F6F80
002E0F40
00000000
00000000
0006FE40
007E07E0
01F802F4
07F001F8
0FE000FC
1FD000FC
2FC001FC
3FC001F8
7F8003F4
7F800BE0
7F906F80
7FEFE824
7FC00018
3FC0001C
2FD0001C
1FF0001C
0BF80038
07FE41B4
00BFFFD0
001BFE00
ENDCHAR
STARTCHAR igrave
ENCODING 236
SWIDTH 301 0
DWIDTH 11 0
BBX 13 29 -2 3
BITMAP
78000000
7F000000
2F800000
0BD00000
02F00000
00B80000
001C0000
00000000
00000000
00000000
00002400
0001B000
005BF000
07FFF000
007FE000
002FE000
001FE000
001FD000
001FD000
001FD000
001FD000
001FC000
001FC000
001FC000
001FC000
002FC000
002FC000
007FE400
07EAFF40
ENDCHAR
STARTCHAR iacute
ENCODING 237
SWIDTH 301 0
DWIDTH 11 0
BBX 11 28 0 3
BITMAP
0002C0
000B80
001F40
002E00
003C00
00B400
009000
000000
000000
000240
001B00
05BF00
7FFF00
07FE00
02FE00
01FE00
01FD00
01FD00
01FD00
01FD00
01FC00
01FC00
01FC00
01FC00
02FC00
02FC00
07FE40
7EAFF4
ENDCHAR
STARTCHAR icircumflex
ENCODING 238
SWIDTH 301 0
DWIDTH 11 0
BBX 14 28 -1 3
BITMAP
00180000
003E0000
00BF8000
01D7E000
0741F800
1D002F40
740006D0
80000000
00000000
00009000
0006C000
016FC000
1FFFC000
01FF8000
00BF8000
007F8000
007F4000
007F4000
007F4000
007F4000
007F0000
007F0000
007F0000
007F0000
00BF0000
00BF0000
01FF9000
1FABFD00
ENDCHAR
STARTCHAR idieresis
ENCODING 239
SWIDTH 301 0
DWIDTH 11 0
BBX 11 25 0 3
BITMAP
0B82D0
1FD7E0
1FD7E0
0B83D0
000000
000000
000240
001B00
05BF00
7FFF00
07FE00
02FE00
01FE00
01FD00
01FD00
01FD00
01FD00
01FC00
01FC00
01FC00
01FC00
02FC00
02FC00
07FE40
7EAFF4
ENDCHAR
STARTCHAR eth
ENCODING 240
SWIDTH 476 0
DWIDTH 17 0
BBX 20 32 -3 -4
BITMAP
0000000800
0000002000
0000005000
002BF98000
02D01BD000
1E0009F400
7400187D00
9000202F00
0000500F80
0000800BD0
00000007E0
00000003F0
00000002F4
00000002F8
00000002FC
00000001FC
00006FE6FD
0002F41FFD
000BD007FD
001FC002FD
002F8000FE
003F4000BE
003F4000BE
007F80007D
003F80007D
003FC0007C
002FD0007C
001FE000B8
000BF800F0
0003FE46E0
0000BFFF80
00001BF900
ENDCHAR
STARTCHAR ntilde
ENCODING 241
SWIDTH 584 0
DWIDTH 21 0
BBX 21 31 0 -1
BITMAP
00002F400000
00007FE00000
0000C7FE0900
000140FFFD00
0001002FFC00
00000007E000
000000000000
000000000000
002400000000
007800000000
01F800BF8000
07FC03FFE000
2FFC0BFFF800
52FD281FFC00
01FD2007FD00
00FD9002FD00
00BE8002FD00
00BF8001FD00
007F8001FD00
003F4001FD00
003F4001FC00
002F4001FC00
002F4001FC00
001F4001F800
001F4001F800
000F8002F800
000F8007F800
001FD1FFF800
03FFF806FC00
010014001F00
0000000002C0
ENDCHAR
STARTCHAR ograve
ENCODING 242
SWIDTH 400 0
DWIDTH 14 0
BBX 24 29 0 6
BITMAP
0000000000B8
0000000002FE
0000000002FF
0000000001FF
00000000003F
1E000000000F
2F800000000E
0FD00000000D
07F000000018
00F800000024
002D00000060
000A00000080
000000000200
000000000900
00000000A000
0000001A4000
0079FF900000
07F0BE000000
0FD03F800000
2F802FD00000
7F401FE00000
7F001FF00000
BF000FF00000
BF001FF00000
7F001FE00000
3F402FD00000
1F803F800000
0BD0BD000000
01BFA0000000
ENDCHAR
STARTCHAR oacute
ENCODING 243
SWIDTH 400 0
DWIDTH 14 0
BBX 24 29 0 6
BITMAP
0000000000B8
0000000002FE
0000000002FF
0000000001FF
00000000003F
00000000000F
00000340000E
00000F40000D
00002F000018
00003D000024
0000B8000060
0000E0000080
000080000200
000000000900
00000000A000
0000001A4000
0079FF900000
07F0BE000000
0FD03F800000
2F802FD00000
7F401FE00000
7F001FF00000
BF000FF00000
BF001FF00000
7F001FE00000
3F402FD00000
1F803F800000
0BD0BD000000
01BFA0000000
ENDCHAR
STARTCHAR ocircumflex
ENCODING 244
SWIDTH 400 0
DWIDTH 14 0
BBX 24 29 0 6
BITMAP
0000000000B8
0000000002FE
0000000002FF
0000000001FF
00000000003F
00000000000F
00024000000E
0007D000000D
000FF4000018
002DBD000024
00B02F400060
028007E00080
0A0000780200
140000000900
00000000A000
0000001A4000
0079FF900000
07F0BE000000
0FD03F800000
2F802FD00000
7F401FE00000
7F001FF00000
BF000FF00000
BF001FF00000
7F001FE00000
3F402FD00000
1F803F800000
0BD0BD000000
01BFA0000000
ENDCHAR
STARTCHAR otilde
ENCODING 245
SWIDTH 400 0
DWIDTH 14 0
BBX 24 29 0 6
BITMAP
0000000000B8
0000000002FE
0000000002FF
0000000001FF
00000000003F
00000000000F
00000000000E
00000000000D
002E40000018
00BFE0000024
0187FD090060
0141FFFC0080
01007FF80200
00000BE00900
00000000A000
0000001A4000
0079FF900000
07F0BE000000
0FD03F800000
2F802FD00000
7F401FE00000
7F001FF00000
BF000FF00000
BF001FF00000
7F001FE00000
3F402FD00000
1F803F800000
0BD0BD000000
01BFA0000000
ENDCHAR
STARTCHAR odieresis
ENCODING 246
SWIDTH 400 0
DWIDTH 14 0
BBX 24 29 0 6
BITMAP
0000000000B8
0000000002FE
0000000002FF
0000000001FF
00000000003F
00000000000F
00000000000E
00000000000D
000000000018
006D1E000024
00BF3F400060
00FF3F400080
007D1E000200
000000000900
00000000A000
0000001A4000
0079FF900000
07F0BE000000
0FD03F800000
2F802FD00000
7F401FE00000
7F001FF00000
BF000FF00000
BF001FF00000
7F001FE00000
3F402FD00000
1F803F800000
0BD0BD000000
01BFA0000000
ENDCHAR
STARTCHAR divide
ENCODING 247
SWIDTH 592 0
DWIDTH 21 0
BBX 18 14 2 4
BITMAP
0007D00000
000FE00000
000FE00000
0007D00000
0000000000
0000000000
0000000000
FFFFFFBF90
0000000000
0000000000
0007D00000
000FF00000
000FF00000
0007D00000
ENDCHAR
STARTCHAR oslash
ENCODING 248
SWIDTH 396 0
DWIDTH 14 0
BBX 14 22 0 0
BITMAP
00009000
0000D000
0001C000
006FE400
07D2FE00
1F836F80
2F071FC0
7E0A0FD0
7E090FE0
BE0C0FE0
BE1C0FE0
7E281FD0
3F342FC0
1FB03F40
0BE1BD00
01FF9000
01D00000
01C00000
02800000
03400000
07000000
01000000
ENDCHAR
STARTCHAR ugrave
ENCODING 249
SWIDTH 744 0
DWIDTH 27 0
BBX 27 27 0 1
BITMAP
0001E000000000
0001FC00000000
0000BE00000000
00002F40000000
00000BC0000000
000002E0000000
00000070000000
00000000000000
00050000028000
001E00006F8000
007F002FFFC000
06FF00002FC000
7AFF40001FC000
007F40000FC000
003F80000FD000
002F80000FD000
002FC0000FD000
002FC0001FD000
001FD0001FE000
001FE0002BE000
000FF00027F000
000BF40063F400
000BFC0093FEB8
0003FE42C1E940
0002FFFF400000
0000BFFE000000
00001BE4000000
ENDCHAR
STARTCHAR uacute
ENCODING 250
SWIDTH 744 0
DWIDTH 27 0
BBX 27 27 0 1
BITMAP
0000000B000000
0000001F000000
0000003D000000
000000B8000000
000000F0000000
000001D0000000
00000240000000
00000000000000
00050000028000
001E00006F8000
007F002FFFC000
06FF00002FC000
7AFF40001FC000
007F40000FC000
003F80000FD000
002F80000FD000
002FC0000FD000
002FC0001FD000
001FD0001FE000
001FE0002BE000
000FF00027F000
000BF40063F400
000BFC0093FEB8
0003FE42C1E940
0002FFFF400000
0000BFFE000000
00001BE4000000
ENDCHAR
STARTCHAR ucircumflex
ENCODING 251
SWIDTH 744 0
DWIDTH 27 0
BBX 27 27 0 1
BITMAP
00000600000000
00000F80000000
00002FE0000000
000075F8000000
0001D07E000000
0007400BD00000
001D0001B40000
00200000000000
00050000028000
001E00006F8000
007F002FFFC000
06FF00002FC000
7AFF40001FC000
007F40000FC000
003F80000FD000
002F80000FD000
002FC0000FD000
002FC0001FD000
001FD0001FE000
001FE0002BE000
000FF00027F000
000BF40063F400
000BFC0093FEB8
0003FE42C1E940
0002FFFF400000
0000BFFE000000
00001BE4000000
ENDCHAR
STARTCHAR udieresis
ENCODING 252
SWIDTH 744 0
DWIDTH 27 0
BBX 27 25 0 1
BITMAP
00001F0B400000
00003F9FC00000
00007F5FC00000
00002E0B400000
00000000000000
00000000000000
00050000028000
001E00006F8000
007F002FFFC000
06FF00002FC000
7AFF40001FC000
007F40000FC000
003F80000FD000
002F80000FD000
002FC0000FD000
002FC0001FD000
001FD0001FE000
001FE0002BE000
000FF00027F000
000BF40063F400
000BFC0093FEB8
0003FE42C1E940
0002FFFF400000
0000BFFE000000
00001BE4000000
ENDCHAR
STARTCHAR yacute
ENCODING 253
SWIDTH 659 0
DWIDTH 24 0
BBX 24 41 0 -16
BITMAP
00000000A000
00000002E000
00000007D000
0000000B8000
0000001F0000
0000282D0000
0002E0240000
002F40000019
06FE002FFFF8
7FFD0001FFE0
03FD00007FD0
03FD00003FD0
02FD00003FD0
02FE00003FD0
01FE00003FD0
00FE00003FC0
00FF00003FC0
00BF40003FC0
007F40007F80
003FC000BF80
002FD000EF80
001FF0026F40
000BFD0A2F40
0002FFF82F00
00006F902F00
000000003E00
000000003E00
000000003D00
000000007C00
000000007800
00000000B400
000BE400B000
002FFC00E000
007FFD01D000
0097FD02C000
00C1F8034000
00C0000A0000
0080001D0000
006000740000
002906D00000
0006F9000000
ENDCHAR
STARTCHAR thorn
ENCODING 254
SWIDTH 514 0
DWIDTH 19 0
BBX 20 53 -2 -22
BITMAP
0002800000
001E000000
16FC000000
BBF8000000
02F8000000
01F8000000
01F8000000
01F8000000
00FC000000
00FC000000
00FC000000
00FC000000
00BC000000
00BC6FE400
00BEFFFE00
00BF81BFC0
00BF002FE0
007E001FF4
007E000BFC
007E0007FD
007E0007FD
007E0003FE
007E0003FE
007E0003FE
007F0003FE
007F0007FE
007F0007FE
007F400BFD
007F801FFC
007FE07FF4
007F6FFFD0
003F46FE00
003F400000
003F800000
003F800000
003F800000
003F800000
003F800000
003FC00000
003FC00000
003FC00000
003FC00000
003FC00000
007FC00000
007FD00000
007FD00000
007FD00000
007FD00000
007FD00000
00BFE00000
01FFF00000
1FFFFE4000
000056F000
ENDCHAR
STARTCHAR ydieresis
ENCODING 255
SWIDTH 659 0
DWIDTH 24 0
BBX 24 42 0 -16
BITMAP
000006D1E000
00000FF3F400
00000FE3F000
000007D2E000
000000000000
000000000000
000028000000
0002E0000000
002F40000019
06FE002FFFF8
7FFD0001FFE0
03FD00007FD0
03FD00003FD0
02FD00003FD0
02FE00003FD0
01FE00003FD0
00FE00003FC0
00FF00003FC0
00BF40003FC0
007F40007F80
003FC000BF80
002FD000EF80
001FF0026F40
000BFD0A2F40
0002FFF82F00
00006F902F00
000000003E00
000000003E00
000000003D00
000000007C00
000000007800
00000000B400
000BE400B000
002FFC00E000
007FFD01D000
0097FD02C000
00C1F8034000
00C0000A0000
0080001D0000
006000740000
002906D00000
0006F9000000
ENDCHAR
STARTCHAR dotlessi
ENCODING 305
SWIDTH 301 0
DWIDTH 11 0
BBX 11 19 0 3
BITMAP
000240
001B00
05BF00
7FFF00
07FE00
02FE00
01FE00
01FD00
01FD00
01FD00
01FD00
01FC00
01FC00
01FC00
01FC00
02FC00
02FC00
07FE40
7EAFF4
ENDCHAR
STARTCHAR OE
ENCODING 338
SWIDTH 1132 0
DWIDTH 41 0
BBX 41 37 0 -7
BITMAP
0000000000000000014000
00000000000000001F4000
0000000000000006FF4000
00000000000016BE5B4000
00006BFE903FFE40028000
0006FFFFF90FFC00018000
002FE401BF87FC00008000
00FF40001FE3FC00008000
03FD000002FBFC00000000
0BF8000000FFFC00000000
1FF00000007FFC00000000
2FE00000002FFD00000000
3FD00000000FFD00040000
7FD00000000BFD00080000
BFC000000007FD00080000
BFC000000007FD00280000
BFD000000003FE05F80000
BFD000000003FFEAB80000
BFE000000002FF00280000
BFF000000002FE00180000
7FF400000002FE00080000
3FF800000003FF00040000
2FFD00000007FF00000000
0FFF0000000BFF00000000
07FF8000000FFF00000040
02FFE000002FFF00000080
00BFF90000B2FF40000180
001FFF901B82FF40000280
0002FFFFFD02FF40000340
00001AFF9002FF40000740
000000000002FF80000F40
000000000002FF80007F80
000000000002FF805BFF80
000000000007FFFFFFFF80
00000000001FE940000500
0000000002E40000000000
0000000001000000000000
ENDCHAR
STARTCHAR oe
ENCODING 339
SWIDTH 798 0
DWIDTH 29 0
BBX 29 17 0 3
BITMAP
006FE40002FE4000
02D07F401F47D000
0B801FD07C01F000
1F4007F5F800F400
2F0003FAF400F400
3F0001FFF001F000
7F0000FFF003E000
7F4000BFF41B8000
7F40007FFBF90900
7F80007FF0000700
3FC0007FF4000300
2FD0007FF8000340
0FF00077FC000300
07F800E2FE000A00
01FE4280FFD06C00
001BF9002FFFF400
0000000006FE4000
ENDCHAR
STARTCHAR circumflex
ENCODING 710
SWIDTH 483 0
DWIDTH 17 0
BBX 14 8 2 23
BITMAP
00090000
002F0000
007F8000
01E7E000
0380BC00
0A002F40
240006D0
90000000
ENDCHAR
STARTCHAR caron
ENCODING 711
SWIDTH 428 0
DWIDTH 15 0
BBX 12 10 2 25
BITMAP
000005
400018
E00070
7801D0
1E0340
0BEE00
03FC00
01F800
00F000
006000
ENDCHAR
STARTCHAR ring
ENCODING 730
SWIDTH 330 0
DWIDTH 12 0
BBX 9 9 1 30
BITMAP
06F900
1E0B40
280280
3401C0
7401C0
3802C0
3E0780
1FFF00
06F800
ENDCHAR
STARTCHAR tilde
ENCODING 732
SWIDTH 433 0
DWIDTH 16 0
BBX 12 6 2 26
BITMAP
1F8000
7FF400
92FE46
80BFFE
402FFD
0006F4
ENDCHAR
STARTCHAR mu.dup1
ENCODING 956
SWIDTH 634 0
DWIDTH 23 0
BBX 22 31 1 -12
BITMAP
010000000000
7E0000040000
BE0001BD0000
BE0002FD0000
BE0001FE0000
7E0000FE0000
7E0000BE0000
7E0000BE0000
7F00007F0000
7F00007F0240
7F40007F01C0
7F80007F4090
7FC000BF4060
7FD000BF8060
7F70019FC060
3F2D070FE0D0
3F46F807FFC0
3F400001BE40
3F4000000000
3F4000000000
3F8000000000
3F8000000000
3F8000000000
3FC000000000
3FC000000000
2FD000000000
2FD000000000
2FD000000000
2FE000000000
2FE000000000
040000000000
ENDCHAR
STARTCHAR endash
ENCODING 8211
SWIDTH 436 0
DWIDTH 16 0
BBX 12 2 2 7
BITMAP
540015
AFFFFA
ENDCHAR
STARTCHAR emdash
ENCODING 8212
SWIDTH 651 0
DWIDTH 23 0
BBX 20 3 2 8
BITMAP
000015ABFD
05AFFFFFFD
FFEAA55500
ENDCHAR
STARTCHAR quoteleft
ENCODING 8216
SWIDTH 287 0
DWIDTH 10 0
BBX 8 12 1 18
BITMAP
0029
00E0
03C0
0B80
1FC0
2FD0
3FF0
3FF8
7FF8
3FF8
2FF4
0BE0
ENDCHAR
STARTCHAR quoteright
ENCODING 8217
SWIDTH 291 0
DWIDTH 11 0
BBX 7 12 2 17
BITMAP
6F80
FFE0
FFF4
FFF8
7FF8
1FF8
07F8
00F4
00F0
01D0
0740
1900
ENDCHAR
STARTCHAR quotesinglbase
ENCODING 8218
SWIDTH 272 0
DWIDTH 10 0
BBX 6 12 2 -6
BITMAP
2F80
BFE0
FFF0
FFF0
7FF0
1FE0
03D0
02C0
0380
0700
0D00
1400
ENDCHAR
STARTCHAR quotedblleft
ENCODING 8220
SWIDTH 445 0
DWIDTH 16 0
BBX 14 13 1 16
BITMAP
000A0000
00280240
00E00A00
03C02C00
0B803C00
1F80BC00
2FC0BF00
3FD0FF80
3FF0BFD0
7FF87FC0
3FF82F40
2FF40000
0BE00000
ENDCHAR
STARTCHAR quotedblright
ENCODING 8221
SWIDTH 444 0
DWIDTH 16 0
BBX 13 13 2 17
BITMAP
6E400000
FFC1B800
FFD3FE00
FFE7FF00
7FE7FF40
1FE2FF00
07D0FF00
03C07E00
07803C00
0B007400
1D01D000
24074000
00280000
ENDCHAR
STARTCHAR quotedblbase
ENCODING 8222
SWIDTH 482 0
DWIDTH 17 0
BBX 14 13 2 -9
BITMAP
2F800000
BFE02F40
FFF4FFD0
FFF4FFE0
BFF8FFE0
2FF4BFD0
07F42FC0
01F00F80
01E00F40
01C01E00
03402C00
0600B000
00018000
ENDCHAR
STARTCHAR bullet
ENCODING 8226
SWIDTH 351 0
DWIDTH 13 0
BBX 10 9 1 10
BITMAP
02FE00
0FFF80
2FFFD0
3FFFE0
7FFFE0
3FFFE0
3FFFD0
1FFF80
06F900
ENDCHAR
STARTCHAR guilsinglleft
ENCODING 8249
SWIDTH 465 0
DWIDTH 17 0
BBX 13 23 2 -3
BITMAP
00000400
00002400
00003000
0000A000
0001C000
00078000
000F0000
003E0000
00FC0000
07F40000
2FF00000
BFF00000
BFF80000
1FFD0000
02FF0000
007F8000
001FD000
0003F000
0000F800
00003D00
00000F00
00000380
00000080
ENDCHAR
STARTCHAR guilsinglright
ENCODING 8250
SWIDTH 449 0
DWIDTH 16 0
BBX 12 23 2 -4
BITMAP
340000
280000
1E0000
0B4000
07D000
02F400
00FE00
007FD0
002FF9
001FFF
002FF8
007FD0
00FF40
02FD00
07F400
0BD000
1F4000
2E0000
3C0000
B40000
E00000
C00000
400000
ENDCHAR
STARTCHAR fraction
ENCODING 8260
SWIDTH 406 0
DWIDTH 15 0
BBX 24 34 -5 0
BITMAP
000000000001
00000000000A
00000000001D
000000000038
0000000000B0
0000000001D0
000000000380
000000000B00
000000002D00
000000007800
00000000E000
00000002C000
0000000B4000
0000001E0000
0000003C0000
000000B40000
000001D00000
000007800000
00000F000000
00002D000000
000078000000
0000E0000000
0002D0000000
000740000000
000E00000000
002C00000000
00B400000000
01D000000000
038000000000
0B0000000000
1D0000000000
380000000000
B00000000000
D00000000000
ENDCHAR
STARTCHAR foursuperior
ENCODING 8308
SWIDTH 473 0
DWIDTH 17 0
BBX 16 21 1 13
BITMAP
00020000
00034000
000B4000
000F4000
002F8000
003F8000
00AF8000
008F8000
024FC000
060BC040
080BC080
180BD1C0
3007D7C0
B6AFFFD0
FFFFFFD0
5547F000
0003F400
0003FC00
0007FF40
006FFFFD
00A50000
ENDCHAR
STARTCHAR Euro
ENCODING 8364
SWIDTH 799 0
DWIDTH 29 0
BBX 31 31 0 -2
BITMAP
0000000000000014
0000000000000030
00000006FFA400A0
000000BF901F41D0
000007F80002FB80
00001FE00000FF40
00007F8000007F00
0001FF0000003E00
0003FE0000002E00
000BFC0000001D00
000FF80000000C00
001FF40064000C00
002FF41B90000800
003FF6E400000000
007FF90040000000
00BFE01B80000000
1BFFE6F800000000
29BFFF4000000000
00BFF40000000000
06FFF00000000000
BFFFF00000008000
F97FF4000000C000
003FF40000008000
002FF80000018000
001FFD0000024000
000BFF0000070000
0003FF80001E0000
0001FFF901BC0000
00007FFFFFF40000
00000BFFFFD00000
000001AFF9000000
ENDCHAR
STARTCHAR minus
ENCODING 8722
SWIDTH 436 0
DWIDTH 16 0
BBX 12 2 2 7
BITMAP
540015
AFFFFA
ENDCHAR
STARTCHAR f_f
ENCODING 64256
SWIDTH 467 0
DWIDTH 17 0
BBX 20 53 1 -13
BITMAP
0000BE4000
0007FFD000
00197FE000
00343FF000
00602FE000
00901F8000
00D0006FE0
01C002D1FC
02C00B00FE
03801D00FF
03802C02FF
0780380BFF
0780780FFF
0780B41FFE
0B80F40FFD
0B80F406F4
0B80F00000
0B81F00000
0B81F00000
0B81F00000
0B81F55400
0BEBFFA900
6FD5F40000
5BC0F80000
0BC0F80000
0BC0F80000
0BC0BC0000
0BD0BC0000
0BD07D0000
0BD07E0000
07E07E0000
07E03F0000
07F02F4000
07F02F8000
07F01F8000
03F41FC000
03F40FD000
03F80FF000
03F80BF400
02FC0BFD00
02FC07FFE0
02FD07F900
01FD0B4000
01FE280000
01FE000000
01FF000000
00FF400000
00FF400000
00FF800000
01FFD00000
01FFE00000
0BFFF80000
FEABFF9000
ENDCHAR
STARTCHAR .notdef
ENCODING -1
SWIDTH 270 0
DWIDTH 10 0
BBX 8 22 1 0
BITMAP
BFFD
0000
0000
0000
0000
0000
0000
0000
0000
0000
0000
0000
0000
0000
0000
0000
0000
0000
0000
0000
0000
BFFD
ENDCHAR
STARTCHAR .null
ENCODING -1
SWIDTH 0 0
DWIDTH 0 0
BBX 1 1 0 0
BITMAP
00
ENDCHAR
STARTCHAR nonmarkingreturn
ENCODING -1
SWIDTH 270 0
DWIDTH 10 0
BBX 1 1 0 0
BITMAP
00
ENDCHAR
STARTCHAR dieresis.case
ENCODING -1
SWIDTH 393 0
DWIDTH 14 0
BBX 11 5 2 27
BITMAP
7E0000
FF42E0
FF87F4
FF4BF4
7E02E0
ENDCHAR
STARTCHAR o.cmp
ENCODING -1
SWIDTH 400 0
DWIDTH 14 0
BBX 24 29 0 6
BITMAP
0000000000B8
0000000002FE
0000000002FF
0000000001FF
00000000003F
00000000000F
00000000000E
00000000000D
000000000018
000000000024
000000000060
000000000080
000000000200
000000000900
00000000A000
0000001A4000
0079FF900000
07F0BE000000
0FD03F800000
2F802FD00000
7F401FE00000
7F001FF00000
BF000FF00000
BF001FF00000
7F001FE00000
3F402FD00000
1F803F800000
0BD0BD000000
01BFA0000000
ENDCHAR
STARTCHAR n_n
ENCODING -1
SWIDTH 1024 0
DWIDTH 37 0
BBX 37 24 0 -1
BITMAP
00140000000000000000
00780000000000000000
01F80000000000000000
1BF800BF800000000000
A7FC07FFF00060000000
01FC1FFFF807F0000000
00FD281FFCBFE0000000
00FD6003FD0FE06F8000
00BE9002FD0BE2FFF400
00BEC001FD0BEA07F800
007F8001FD0BEC02FD00
003F4001FD0BF401FD00
003F4001FD0BF001FE00
002F4001FC0BF001FE00
002F4001FC0BE001FE00
001F4001F80BE001FD00
001F4001F80BE002FD00
000F4002F80FF002FC00
000F8007F80FF403FC00
000F81FFF82FFA0BF800
001FD017FDA401FFFD00
03FFF8006F4000006B40
0100140007C000000000
00000000004000000000
ENDCHAR
STARTCHAR a_a
ENCODING -1
SWIDTH 911 0
DWIDTH 33 0
BBX 34 25 0 -2
BITMAP
0000000002FE400000
000000001E46F40000
000000007C00BC0000
00000000BD003E0000
00000000FF002F0000
01BF4000FF402F4000
0742E000FF401F8000
0E00B4007E001F8000
2E00780000001FC000
3F403C0000001FC000
3F803D002BF91FC000
2FC02D01F905AFC000
1F402E07E0002FC000
00003E0FC0002FC000
006FFE1FCB402FC000
02F92E2F8FC02FC000
0FE02E2FC2C03FD000
2FC02E2FD0C07FD000
7F803F1FF986FFD000
7F803F4BFFFFBFD000
7F806F82FFFD2FD010
3FD1CBC06FE01FE020
2FFF42F428000FF460
06F9006FE00007FFD0
00000000000000BE40
ENDCHAR
STARTCHAR t_h
ENCODING -1
SWIDTH 854 0
DWIDTH 31 0
BBX 32 47 -1 -8
BITMAP
0000000024000000
00000000B8000000
00000007F8000000
000001BFF4000000
00007FFFF4000000
0000000BF4000000
00000007F4000000
00000003F4000000
00000003F4000000
00000003F0000000
00000203F0000000
00000A03F0000000
00002D03F0000000
00007C03F0000000
0002FC03E0000000
006FFD07E0000000
6FFFFFFFFF400000
140FF407E0000000
000FF007E0000000
000FE007D0000000
000FE00BD06FE400
001FD00BD2907F40
001FD00BD9001FD0
001FD00BE8000BE0
001FD00BF40007F4
001FD00BF00007F8
001FD00FE00007F8
001FD00FD02E03FC
001FD00FD0BF43FC
000FD00FD0BF83FC
000FE00FC07F83FC
000BF01FC01F47F8
0003F41FC00F07F8
0001F81FC01D07F8
0000BE1FC03807F4
00001FEFC6D00BF4
000001BFF9000BF0
0000003FD0000BF0
0000007FE0000FE0
000001FFF4001FD0
00000BFFFE001FD0
000079401BC03FD0
000000000000BFD0
000000000006FFD0
00000000007FFFE0
00000000000001F8
000000000000001A
ENDCHAR
STARTCHAR s_s
ENCODING -1
SWIDTH 654 0
DWIDTH 24 0
BBX 24 32 -1 -5
BITMAP
000000010001
000000050005
0001BFB8000C
0007D1F0AFFC
000F8067E07C
000F404BC028
001F804F801C
001FC01F8008
000FD01FC004
000BF40FC000
0003FC0BE000
0001FF07F400
0000BFC3FC00
00002FF1FE00
00000FF8BF40
000007FD7FC0
000001FF2FE0
000000BF5FF4
0200007F8BF8
07006E3F87FD
0B00FF2F83FE
0B01FF2F82FE
1F42FD2F42FF
2F82E03E01FF
61D280BD01FF
407A46F402FE
0006FE4003FE
0000C00007FD
0000B4000FF8
00002E407FE0
00000BFFFF80
000001BFE800
ENDCHAR
STARTCHAR t_t
ENCODING -1
SWIDTH 569 0
DWIDTH 21 0
BBX 21 32 0 -3
BITMAP
000007E00000
00000BE00000
00018BE00000
00028FE00000
00034FE00000
000B4FD01400
001F0FD1A000
00BF1FFE0000
07FFFFE00000
BFFFBFC00000
02FE2F800000
01FD2F800000
01FD2F800000
02FC2F400000
02FC2F400000
02FC2F400000
02FC1F400000
02F81F800000
02F81F80BD00
02F80FC1FF00
02F80BC0FF40
02FC07E01B40
02FC02F40340
01FC00BD0A00
00FD001BF400
00BD00000000
007E0007E000
003F000FF000
001F400FF400
0007C01FE000
0001F43FC000
00001BFA0000
ENDCHAR
STARTCHAR e_e
ENCODING -1
SWIDTH 782 0
DWIDTH 28 0
BBX 28 20 0 0
BITMAP
006FE0006FE400
02F47C02F42E00
0BD01E0BC00B40
1F801F1F800780
3F401E3F0007C0
7F001E7F0007C0
BF002DBE0007C0
BF0078FE000780
FF01E0FE000B80
BF5B80FE000F40
BFE400FE001E00
7F8000FF002D14
3FC000BF40780C
1FE0007F80E009
0BF4003FC2800A
02FE002FED000A
006FE40FFC001D
0006BFEAFF4078
000000007FFFF0
0000000006FE40
ENDCHAR
STARTCHAR o_o
ENCODING -1
SWIDTH 751 0
DWIDTH 27 0
BBX 37 31 0 2
BITMAP
00000000000000007E00
0000000000000000FF40
0000000000000000FF80
0000000000000000BF80
00000000000000001F80
00000000000000000B80
00000000000000000740
00000000000000000700
00000000000000000900
00000000000000000C00
00000000000000002400
00000000000000006000
00000000000000018000
00000000000000060000
001BF900000000680000
00BE06C000001B900000
03F400B0B8BFE4000000
0BE0007FD07F40000000
1FC0003F401FC0000000
2F80003F000FE0000000
3F4000BF000BF0000000
7F4000FF4007F4000000
7F4000FF4007F4000000
7F4000FF4007F4000000
7F4000BF4007F0000000
3F40007F000BE0000000
2F4000BE001FC0000000
1F8000FF907E00000000
0BD002F5AFE400000000
02F41BD0000000000000
002BF900000000000000
ENDCHAR
STARTCHAR l_l
ENCODING -1
SWIDTH 573 0
DWIDTH 21 0
BBX 23 36 -2 -5
BITMAP
000240002000
000B4002F400
002F406FF400
00BF4BFFF400
06FF402FF400
247F401FF400
007F401FF400
007F400FF400
007F400FF400
007F400FF400
007F400FF400
007F400FF400
007F800BF400
007F800BF400
007F800BF400
003F800BF400
003F800BF400
003F800BF400
003F800BF400
007F800BF400
007F800BF400
007F8007F800
007F8007F800
007F8007F800
007F8007FC00
007F8007FC00
007FC007FC00
007FC007FD00
007FC00BFE00
007FC01FFF40
007FC1FEABF8
00BFD0000000
BFFFE0000000
05AFF4000000
0001BD000000
00000B400000
ENDCHAR
STARTCHAR z_z
ENCODING -1
SWIDTH 875 0
DWIDTH 32 0
BBX 33 24 -1 -2
BITMAP
00000A5001A8000000
00000BFFFFF8000000
000009001BF0000000
0000040007E0000000
02E9005A0BD0000000
02807FFD1FC0000000
02003FF42F80000000
01007FE03F40000000
0100FFC0BE00000000
0001FF40FD00000000
0003FE01FC00000000
0007FC03F800000000
000FF407F400000000
002FE00FF000800000
003FC01FE000C06E00
00BF403FD001C0FF80
01FE007FC007C0FF80
02FD00BFFFFFC0FF80
07F800F9401AC0BF80
0FE000000000003F40
2FEAFFE50000003F00
3FFFFFFFE400003D00
B940016BFFA401A400
0000000016AFFA4000
ENDCHAR
STARTCHAR j_j
ENCODING -1
SWIDTH 577 0
DWIDTH 21 0
BBX 24 49 -4 -23
BITMAP
00000006E400
0000000BFC00
0000000FFC00
00000B8BF800
00002FE6E000
00002FD00000
00000B806F40
0000002FFF80
0000001BFFC0
00100165FFD0
001BFFFC7FE0
00007FFD2FF0
00001FFD1FF0
00000BFE0FF4
000003FE0BF8
000002FF07F8
000001FF03FC
000000FF02FC
000000BF01FD
000000BF40FD
0000007F40FE
0000007F40BE
0000003F40BE
0000003F407E
0000003F407F
0000002F407F
0000002F403F
0000002F403F
0000002F403F
0000002F402F
0000002F002F
06F4002F002F
1FFD002F002F
3FFE003E002F
BFFE003D002F
FFFC003D002E
FF90007C002E
F80000B8002E
F00000F0002D
B00001E0003D
700003C0003C
28000B000078
0A4179500074
01BF92F800B0
000007FD00D0
000007FE01C0
000003FF8700
000001FFFD00
0000006F9000
ENDCHAR
STARTCHAR f_b
ENCODING -1
SWIDTH 731 0
DWIDTH 26 0
BBX 29 47 -2 -6
BITMAP
000001BE40000000
00000A42E0000000
00002800B4000000
00007400B8000000
0000A000BC000000
0000D002FC000000
0001D01FFC000000
0002C0BFF8000000
0003C0FFF4000000
000781FFF0000000
000780BFD4000000
000B80192D000000
000B8001FD000000
000F80AFFD000000
000FC05BFD000000
002FD069FD000000
01BFFE90FD000000
7EBFD000FD000000
002FC000BD000000
001FC000BD000000
001FC000BD000000
001FC000BD000000
001FC000BD000000
001FC000BD000000
001FC000BD000000
001FD000BD000000
001FD000BD000000
001FD000BD000000
001FD000BD6F9000
001FD000BF47F800
001FD000BE01FE00
001FD000BD00FF00
001FD000BC00FF40
001FD000BC00FF40
001FD000BC00FF40
001FE000BC00FF40
001FE000BC01FF00
001FE000BD02FD00
001FE001FF07F800
001FE007FFFFD000
001FE02E40100000
001FF00000000000
001FF80000000000
002FFFA000000000
007FFFF400000000
01F9000000000000
0A40000000000000
ENDCHAR
STARTCHAR f_k
ENCODING -1
SWIDTH 708 0
DWIDTH 26 0
BBX 24 42 1 -5
BITMAP
000004000000
000038000000
0001F8000000
001BF8000000
0AFFFFF90000
0007F82F4000
000BF81FD000
001EF83FD000
0039F8BFE000
0075F8FFD000
00B1F8FFC000
00F1F86E4000
01E0F8000000
02E0F8000000
03D0F8000000
03D0FC000000
07D0FC000000
6FD0FC140000
57C0FC0B5000
07C0FC01FF90
0BC0FC00E400
0BC0FC018000
0BC0FC060000
0BC0FD180000
0BC0FD3C0000
0BC0FDFC0000
0BC0FFFD0010
0BC0FD7E0014
0BC0FE3F4009
0BC0FE2F8006
0BC0BE1FD003
0BC0BE0FF007
0BC0BE07FD0B
0BC0BF02FFFE
0FD0BF00BFFD
0FD0BF001BE4
1FE0FF400000
BFF4FF400000
0069FF800000
0007FFE54000
01AFFFFFD000
015400054000
ENDCHAR
STARTCHAR f_h
ENCODING -1
SWIDTH 873 0
DWIDTH 31 0
BBX 34 46 -2 -5
BITMAP
000001BE4000000000
00000A42E000000000
00002800B400000000
00007000B800000000
0000A000BC00000000
0000D002FC00000000
0002D01FFC00000000
0002C0BFF800000000
0003C0FFF400000000
000780FFF1C0000000
000780BFD7C0000000
000B80152FC0000000
000B8002FF80000000
000F807FFF80000000
000FC0507F40000000
002FE5B82F40000000
05BFF9402F40000000
6ABFD0002F40000000
002FC0002F00000000
001FC0002F00000000
001FC0002F00000000
001FC0002F00000000
001FC0002F00000000
001FC0002F00000000
001FD0003F00000000
001FD0003E00000000
001FD0003E02FD0000
001FD0003E1FFFC000
001FD0003E342FE000
001FD0007E900FF000
001FD0007FC00BF400
001FD0007F8007F400
001FD0007F4007F400
001FD000BF0007F800
001FE000BE0007F800
001FE000BE0007F800
001FE000BE0007F800
001FE000FD0007F400
001FE000FD000BF800
001FE001FD000BF800
001FF007FE001FFF90
001FF8FFFF80A50140
002FFFE416A0000000
007FFFF40000000000
01F900000000000000
0A4000000000000000
ENDCHAR
ENDFONT
